<svg xmlns="http://www.w3.org/2000/svg" xmlns:xlink="http://www.w3.org/1999/xlink" width="400" height="320" viewBox="0 0 400 320">
  <defs>
    <clipPath id="clip-path">
      <rect id="Rectángulo_296148" data-name="Rectángulo 296148" width="151.862" height="188.878" fill="#ef3c79"/>
    </clipPath>
  </defs>
  <g id="Grupo_882294" data-name="Grupo 882294" transform="translate(-176 -5387)">
    <rect id="Rectángulo_297334" data-name="Rectángulo 297334" width="400" height="320" rx="10" transform="translate(176 5387)" fill="#fff"/>
    <g id="Grupo_882285" data-name="Grupo 882285">
      <g id="Grupo_882193" data-name="Grupo 882193" transform="translate(307.609 5415)">
        <rect id="Rectángulo_296139" data-name="Rectángulo 296139" width="8.717" height="14.033" transform="translate(92.273 51.079)" fill="#ef3c79"/>
        <path id="Trazado_603697" data-name="Trazado 603697" d="M167.41,108.623l-9.176,9.176-9.176-9.176Z" transform="translate(-61.603 -44.892)" fill="#ef3c79"/>
        <rect id="Rectángulo_296140" data-name="Rectángulo 296140" width="5.97" height="9.61" transform="translate(80.112 37.845)" fill="#ef3c79"/>
        <path id="Trazado_603698" data-name="Trazado 603698" d="M143.487,79.27,137.2,85.555l-6.284-6.284Z" transform="translate(-54.106 -32.761)" fill="#ef3c79"/>
        <rect id="Rectángulo_296141" data-name="Rectángulo 296141" width="5.97" height="9.61" transform="translate(120.586 75.685)" fill="#ef3c79"/>
        <path id="Trazado_603699" data-name="Trazado 603699" d="M212.47,143.764l-6.284,6.284-6.284-6.284Z" transform="translate(-82.615 -59.415)" fill="#ef3c79"/>
        <rect id="Rectángulo_296142" data-name="Rectángulo 296142" width="16.185" height="163.954" transform="translate(0 24.924)" fill="#ef3c79"/>
        <rect id="Rectángulo_296143" data-name="Rectángulo 296143" width="16.185" height="129.37" transform="translate(23.902 59.508)" fill="#ef3c79"/>
        <rect id="Rectángulo_296144" data-name="Rectángulo 296144" width="16.185" height="98.244" transform="translate(47.803 90.634)" fill="#ef3c79"/>
        <rect id="Rectángulo_296145" data-name="Rectángulo 296145" width="16.185" height="73.459" transform="translate(71.705 115.418)" fill="#ef3c79"/>
        <rect id="Rectángulo_296146" data-name="Rectángulo 296146" width="16.185" height="49.25" transform="translate(95.607 139.628)" fill="#ef3c79"/>
        <rect id="Rectángulo_296147" data-name="Rectángulo 296147" width="16.185" height="25.041" transform="translate(119.509 163.836)" fill="#ef3c79"/>
        <g id="Grupo_879639" data-name="Grupo 879639">
          <g id="Grupo_879638" data-name="Grupo 879638" clip-path="url(#clip-path)">
            <path id="Trazado_603700" data-name="Trazado 603700" d="M156.733,145.959a1.149,1.149,0,0,1-.486-.108c-43.558-20.3-76.07-58.446-95.674-86.873C39.353,28.207,28.258,1.86,28.148,1.6A1.153,1.153,0,1,1,30.276.709c.109.261,11.131,26.424,32.225,57,19.437,28.177,51.647,65.977,94.72,86.049a1.153,1.153,0,0,1-.488,2.2" transform="translate(-11.596 0)" fill="#ef3c79"/>
            <path id="Trazado_603701" data-name="Trazado 603701" d="M235.2,227.086,228.88,242.6l17.573-1.883Z" transform="translate(-94.591 -93.85)" fill="#ef3c79"/>
            <path id="Trazado_603702" data-name="Trazado 603702" d="M89.3,17.735a4.5,4.5,0,0,1-1.556-2.169,11.27,11.27,0,0,1-.611-2.589q-.055-1.049-.055-2.239a11.072,11.072,0,0,1,.888-3.918,4.69,4.69,0,0,1,1.472-1.977,3.494,3.494,0,0,1,2.194-.752q6.221,0,6.222,6.926v.105H97.8a9.437,9.437,0,0,0-.444,3.708,5.281,5.281,0,0,1-.444,1.959,2.817,2.817,0,0,1-1.389,1.329,7.846,7.846,0,0,1-3.165.525,4.686,4.686,0,0,1-3.055-.909m6-5.772q0-6.121-3.444-6.121-.666,0-1.388,1.924a9.222,9.222,0,0,0-.722,2.938,19.812,19.812,0,0,0,.111,2.1,12.331,12.331,0,0,0,.722,2.763,2.807,2.807,0,0,0,.694,1,1.426,1.426,0,0,0,.972.367q3.054,0,3.055-4.967m-.611,17.77q0-2.133,2.667-8.78Q99.8,14.9,102.023,9.76l1.111-2.589.5-1.119a2.126,2.126,0,0,1,.472-1.154,1.32,1.32,0,0,1,1.084-.525,2.16,2.16,0,0,1,1.056.245.7.7,0,0,1,.444.594q0,2.449-4.944,14.063Q99.58,24.451,99.3,25.361a6.049,6.049,0,0,0-.278.944,13.341,13.341,0,0,1-1.111,2.834,3.441,3.441,0,0,1-.945,1.154,2.18,2.18,0,0,1-1.222.455q-1.055-.385-1.055-1.014m11.276.367a3.784,3.784,0,0,1-1.333-1.241,8.68,8.68,0,0,1-1.277-3.253q-.113-.979-.111-1.33a20.67,20.67,0,0,1,.111-2.2,8.705,8.705,0,0,1,.555-2.623,4.648,4.648,0,0,1,1.611-2.2,4.223,4.223,0,0,1,3-.945,7.13,7.13,0,0,1,2.083.28,4.205,4.205,0,0,1,1.528.8,5.057,5.057,0,0,1,1.555,2.449,9.7,9.7,0,0,1,.334,2.623v1.679a7.428,7.428,0,0,1-1.167,4.162,4.561,4.561,0,0,1-1.944,1.662,7.155,7.155,0,0,1-3.111.613,3.655,3.655,0,0,1-1.833-.472m5.333-6.069v-1.4a8.194,8.194,0,0,0-.5-2.694,2.8,2.8,0,0,0-.916-1.347,2.385,2.385,0,0,0-1.528-.507,1.6,1.6,0,0,0-1.333.8,8.553,8.553,0,0,0-1.056,3.988q-.055.56-.056,1.469a7.439,7.439,0,0,0,.695,2.588q.694,1.679,1.361,1.679,3.333,0,3.333-4.582" transform="translate(-35.989 -1.692)" fill="#ef3c79"/>
          </g>
        </g>
      </g>
      <path id="Trazado_606405" data-name="Trazado 606405" d="M131.082,7.938l3.809,11.871,3.8-11.871H144.1V25h-4.125V21.016l.4-8.156L136.25,25h-2.719l-4.137-12.152.4,8.168V25H125.68V7.938Zm21.586,17.3a6.518,6.518,0,0,1-4.723-1.74,6.009,6.009,0,0,1-1.8-4.529v-.328a7.787,7.787,0,0,1,.721-3.434,5.274,5.274,0,0,1,2.1-2.3,6.35,6.35,0,0,1,3.281-.814,5.489,5.489,0,0,1,4.219,1.658,6.516,6.516,0,0,1,1.547,4.623V19.9H150.16a2.846,2.846,0,0,0,.926,1.676,2.755,2.755,0,0,0,1.852.609,3.549,3.549,0,0,0,2.93-1.312l1.8,2.133a5.045,5.045,0,0,1-2.092,1.623A7.069,7.069,0,0,1,152.668,25.234Zm-.445-10.1q-1.734,0-2.062,2.3h3.984v-.3a1.956,1.956,0,0,0-.48-1.471A1.912,1.912,0,0,0,152.223,15.133Zm11-2.812.129,1.488a4.3,4.3,0,0,1,3.621-1.723,3.618,3.618,0,0,1,2.959,1.184,5.635,5.635,0,0,1,1.014,3.563V25h-3.961V17a2.14,2.14,0,0,0-.387-1.412,1.789,1.789,0,0,0-1.406-.451,1.883,1.883,0,0,0-1.723.914V25h-3.949V12.32Zm9.41,6.223a7.484,7.484,0,0,1,.738-3.381,5.28,5.28,0,0,1,2.121-2.279,6.388,6.388,0,0,1,3.246-.8,5.83,5.83,0,0,1,4.488,1.764,6.768,6.768,0,0,1,1.641,4.8v.141a6.566,6.566,0,0,1-1.646,4.705,5.846,5.846,0,0,1-4.459,1.74,5.912,5.912,0,0,1-4.348-1.623,6.348,6.348,0,0,1-1.77-4.4Zm3.949.246a4.718,4.718,0,0,0,.551,2.578,1.835,1.835,0,0,0,1.629.82q2.109,0,2.156-3.246v-.4q0-3.41-2.18-3.41-1.98,0-2.145,2.941Zm16.664,2.648a.912.912,0,0,0-.527-.809,8.021,8.021,0,0,0-2-.633,9.138,9.138,0,0,1-2.437-.861,4.083,4.083,0,0,1-1.465-1.295,3.092,3.092,0,0,1-.5-1.746,3.5,3.5,0,0,1,1.441-2.877,5.938,5.938,0,0,1,3.773-1.131,6.579,6.579,0,0,1,4.031,1.137,3.555,3.555,0,0,1,1.523,2.988h-3.961q0-1.523-1.605-1.523a1.591,1.591,0,0,0-1.043.346,1.07,1.07,0,0,0-.422.861.982.982,0,0,0,.516.855,4.872,4.872,0,0,0,1.646.539,14.228,14.228,0,0,1,1.986.5q2.859.984,2.859,3.527a3.321,3.321,0,0,1-1.541,2.824,6.758,6.758,0,0,1-3.99,1.09,6.9,6.9,0,0,1-2.906-.586,4.86,4.86,0,0,1-1.992-1.594,3.609,3.609,0,0,1-.715-2.121h3.691a1.526,1.526,0,0,0,.586,1.283,2.41,2.41,0,0,0,1.441.4,1.9,1.9,0,0,0,1.213-.328A1.05,1.05,0,0,0,193.25,21.438Zm16.992.75a1.756,1.756,0,0,0,1.289-.451,1.654,1.654,0,0,0,.445-1.26h3.7a4.384,4.384,0,0,1-1.494,3.422,5.558,5.558,0,0,1-3.85,1.336,5.627,5.627,0,0,1-4.359-1.734,6.834,6.834,0,0,1-1.594-4.8v-.164a7.723,7.723,0,0,1,.709-3.393,5.162,5.162,0,0,1,2.045-2.262,6.1,6.1,0,0,1,3.164-.791,5.488,5.488,0,0,1,3.926,1.371,4.863,4.863,0,0,1,1.453,3.715h-3.7a2.168,2.168,0,0,0-.48-1.512,1.658,1.658,0,0,0-1.289-.527q-1.535,0-1.793,1.957a13.809,13.809,0,0,0-.082,1.711,5.424,5.424,0,0,0,.457,2.648A1.582,1.582,0,0,0,210.242,22.188Zm6.609-3.645a7.484,7.484,0,0,1,.738-3.381,5.28,5.28,0,0,1,2.121-2.279,6.388,6.388,0,0,1,3.246-.8,5.83,5.83,0,0,1,4.488,1.764,6.768,6.768,0,0,1,1.641,4.8v.141a6.566,6.566,0,0,1-1.646,4.705,5.846,5.846,0,0,1-4.459,1.74,5.912,5.912,0,0,1-4.348-1.623,6.348,6.348,0,0,1-1.77-4.4Zm3.949.246a4.718,4.718,0,0,0,.551,2.578,1.835,1.835,0,0,0,1.629.82q2.109,0,2.156-3.246v-.4q0-3.41-2.18-3.41-1.98,0-2.145,2.941Zm16.664,2.648a.912.912,0,0,0-.527-.809,8.021,8.021,0,0,0-2-.633,9.138,9.138,0,0,1-2.437-.861,4.083,4.083,0,0,1-1.465-1.295,3.092,3.092,0,0,1-.5-1.746,3.5,3.5,0,0,1,1.441-2.877,5.938,5.938,0,0,1,3.773-1.131,6.579,6.579,0,0,1,4.031,1.137,3.555,3.555,0,0,1,1.523,2.988h-3.961q0-1.523-1.605-1.523a1.591,1.591,0,0,0-1.043.346,1.07,1.07,0,0,0-.422.861.982.982,0,0,0,.516.855,4.872,4.872,0,0,0,1.646.539,14.228,14.228,0,0,1,1.986.5q2.859.984,2.859,3.527a3.321,3.321,0,0,1-1.541,2.824,6.758,6.758,0,0,1-3.99,1.09,6.9,6.9,0,0,1-2.906-.586,4.86,4.86,0,0,1-1.992-1.594,3.609,3.609,0,0,1-.715-2.121h3.691a1.526,1.526,0,0,0,.586,1.283,2.41,2.41,0,0,0,1.441.4,1.9,1.9,0,0,0,1.213-.328A1.05,1.05,0,0,0,237.465,21.438Zm10.254-12.27V12.32H249.8v2.742h-2.086v5.8a1.481,1.481,0,0,0,.258,1,1.383,1.383,0,0,0,1.02.281,5.793,5.793,0,0,0,.984-.07v2.824a7.288,7.288,0,0,1-2.227.34,4.137,4.137,0,0,1-3.012-.961,3.939,3.939,0,0,1-.973-2.918V15.063h-1.617V12.32h1.617V9.168Zm9.773,16.066a6.518,6.518,0,0,1-4.723-1.74,6.009,6.009,0,0,1-1.8-4.529v-.328a7.787,7.787,0,0,1,.721-3.434,5.274,5.274,0,0,1,2.1-2.3,6.35,6.35,0,0,1,3.281-.814,5.489,5.489,0,0,1,4.219,1.658,6.516,6.516,0,0,1,1.547,4.623V19.9h-7.852a2.846,2.846,0,0,0,.926,1.676,2.755,2.755,0,0,0,1.852.609,3.549,3.549,0,0,0,2.93-1.312l1.8,2.133a5.045,5.045,0,0,1-2.092,1.623A7.069,7.069,0,0,1,257.492,25.234Zm-.445-10.1q-1.734,0-2.062,2.3h3.984v-.3a1.956,1.956,0,0,0-.48-1.471A1.912,1.912,0,0,0,257.047,15.133Zm14.016,6.3a.912.912,0,0,0-.527-.809,8.021,8.021,0,0,0-2-.633,9.138,9.138,0,0,1-2.437-.861,4.083,4.083,0,0,1-1.465-1.295,3.092,3.092,0,0,1-.5-1.746,3.5,3.5,0,0,1,1.441-2.877,5.938,5.938,0,0,1,3.773-1.131,6.579,6.579,0,0,1,4.031,1.137,3.555,3.555,0,0,1,1.523,2.988h-3.961q0-1.523-1.605-1.523a1.591,1.591,0,0,0-1.043.346,1.07,1.07,0,0,0-.422.861.982.982,0,0,0,.516.855,4.872,4.872,0,0,0,1.646.539,14.228,14.228,0,0,1,1.986.5q2.859.984,2.859,3.527a3.321,3.321,0,0,1-1.541,2.824,6.758,6.758,0,0,1-3.99,1.09,6.9,6.9,0,0,1-2.906-.586,4.86,4.86,0,0,1-1.992-1.594,3.609,3.609,0,0,1-.715-2.121h3.691A1.526,1.526,0,0,0,268,22.217a2.41,2.41,0,0,0,1.441.4,1.9,1.9,0,0,0,1.213-.328A1.05,1.05,0,0,0,271.063,21.438Z" transform="translate(181 5616)"/>
    </g>
  </g>
</svg>
