<svg xmlns="http://www.w3.org/2000/svg" xmlns:xlink="http://www.w3.org/1999/xlink" width="1224" height="445" viewBox="0 0 1224 445">
  <defs>
    <filter id="Trazado_604471" x="0" y="113.533" width="427.416" height="99.389" filterUnits="userSpaceOnUse">
      <feOffset dx="2" dy="5" input="SourceAlpha"/>
      <feGaussianBlur stdDeviation="3" result="blur"/>
      <feFlood flood-opacity="0.161"/>
      <feComposite operator="in" in2="blur"/>
      <feComposite in="SourceGraphic"/>
    </filter>
    <filter id="Trazado_604481" x="695.155" y="222.689" width="427.415" height="99.389" filterUnits="userSpaceOnUse">
      <feOffset dx="2" dy="5" input="SourceAlpha"/>
      <feGaussianBlur stdDeviation="3" result="blur-2"/>
      <feFlood flood-opacity="0.161"/>
      <feComposite operator="in" in2="blur-2"/>
      <feComposite in="SourceGraphic"/>
    </filter>
    <filter id="Trazado_604491" x="0" y="334.719" width="427.416" height="99.389" filterUnits="userSpaceOnUse">
      <feOffset dx="2" dy="5" input="SourceAlpha"/>
      <feGaussianBlur stdDeviation="3" result="blur-3"/>
      <feFlood flood-opacity="0.161"/>
      <feComposite operator="in" in2="blur-3"/>
      <feComposite in="SourceGraphic"/>
    </filter>
  </defs>
  <g id="Grupo_882246" data-name="Grupo 882246" transform="translate(-153 -8047)">
    <g id="Grupo_880432" data-name="Grupo 880432" transform="translate(160 8073.81)">
      <g transform="matrix(1, 0, 0, 1, -7, -26.81)" filter="url(#Trazado_604471)">
        <path id="Trazado_604471-2" data-name="Trazado 604471" d="M-49.028-1813.366H310.119a9.575,9.575,0,0,0,9.575-9.575v-62.238a9.575,9.575,0,0,0-9.575-9.575H-49.028a40.694,40.694,0,0,0-40.693,40.694h0A40.694,40.694,0,0,0-49.028-1813.366Z" transform="translate(96.72 2012.29)" fill="#f9fbfc"/>
      </g>
      <path id="Trazado_604472" data-name="Trazado 604472" d="M27.326-1894.755H-49.028a40.694,40.694,0,0,0-40.693,40.694h0a40.694,40.694,0,0,0,40.693,40.694H27.326Z" transform="translate(89.721 1985.478)" fill="#ce3e76"/>
      <rect id="Rectángulo_296254" data-name="Rectángulo 296254" width="18.94" height="81.389" transform="translate(98.108 90.723)" opacity="0.5"/>
      <rect id="Rectángulo_296255" data-name="Rectángulo 296255" width="4.798" height="81.389" transform="translate(117.048 90.723)"/>
      <path id="Trazado_604473" data-name="Trazado 604473" d="M-48.6-1822.517h0a31.12,31.12,0,0,0,31.119-31.119h0A31.12,31.12,0,0,0-48.6-1884.755h0a31.119,31.119,0,0,0-31.118,31.119h0A31.119,31.119,0,0,0-48.6-1822.517Z" transform="translate(89.296 1985.053)" fill="#f9fbfc"/>
      <g id="Grupo_880392" data-name="Grupo 880392" transform="translate(308.244 99.706)">
        <g id="Grupo_880391" data-name="Grupo 880391" transform="translate(0)">
          <path id="Trazado_604474" data-name="Trazado 604474" d="M263.936-1822.517h0a31.119,31.119,0,0,0,31.119-31.119h0a31.119,31.119,0,0,0-31.119-31.119h0a31.12,31.12,0,0,0-31.119,31.119h0A31.12,31.12,0,0,0,263.936-1822.517Z" transform="translate(-232.226 1885.347)" fill="#fff"/>
          <path id="Trazado_604475" data-name="Trazado 604475" d="M263.91-1821.951a31.746,31.746,0,0,1-31.71-31.711,31.746,31.746,0,0,1,31.71-31.711,31.747,31.747,0,0,1,31.711,31.711A31.747,31.747,0,0,1,263.91-1821.951Zm0-62.238a30.562,30.562,0,0,0-30.527,30.527,30.562,30.562,0,0,0,30.527,30.527,30.563,30.563,0,0,0,30.528-30.527A30.563,30.563,0,0,0,263.91-1884.19Z" transform="translate(-232.2 1885.373)" fill="#ce3e76"/>
        </g>
      </g>
      <g id="Grupo_880393" data-name="Grupo 880393" transform="translate(385.678 90.723)">
        <path id="Trazado_604476" data-name="Trazado 604476" d="M327.445-1894.755h-9.364v81.389h9.364a9.575,9.575,0,0,0,9.575-9.575v-62.238A9.575,9.575,0,0,0,327.445-1894.755Z" transform="translate(-313.283 1894.755)" fill="#ce3e76"/>
        <rect id="Rectángulo_296256" data-name="Rectángulo 296256" width="4.798" height="81.389" transform="translate(0 0)"/>
      </g>
      <g id="Grupo_880394" data-name="Grupo 880394" transform="translate(28.998 113.433)">
        <path id="Trazado_604477" data-name="Trazado 604477" d="M-37.721-1840.375H-58.813v-4.567l9.716-10.214q3.591-4.089,3.592-6.5a4.521,4.521,0,0,0-.851-2.968,3.041,3.041,0,0,0-2.47-1.018,3.076,3.076,0,0,0-2.595,1.36,5.589,5.589,0,0,0-1,3.394h-7.018a9.923,9.923,0,0,1,1.391-5.138,9.755,9.755,0,0,1,3.862-3.685,11.471,11.471,0,0,1,5.522-1.329q4.9,0,7.546,2.263a8.079,8.079,0,0,1,2.647,6.5,9.444,9.444,0,0,1-.664,3.478,15.271,15.271,0,0,1-2.066,3.551,52.019,52.019,0,0,1-4.515,4.972l-3.9,4.5h11.9Z" transform="translate(59.436 1871.037)" fill="#ce3e76"/>
      </g>
      <g id="Grupo_880398" data-name="Grupo 880398" transform="translate(317.993 111.919)">
        <g id="Grupo_880395" data-name="Grupo 880395" transform="translate(9.322)">
          <rect id="Rectángulo_296257" data-name="Rectángulo 296257" width="28.979" height="36.667" transform="translate(0.591 0.592)" fill="#fff"/>
          <path id="Trazado_604478" data-name="Trazado 604478" d="M281.688-1834.768H252.709a.591.591,0,0,1-.591-.592v-36.667a.591.591,0,0,1,.591-.592h28.979a.592.592,0,0,1,.592.592v36.667A.592.592,0,0,1,281.688-1834.768Zm-28.387-1.183h27.8v-35.484H253.3Z" transform="translate(-252.118 1872.618)" fill="#ce3e76"/>
        </g>
        <g id="Grupo_880396" data-name="Grupo 880396" transform="translate(0 5.915)">
          <rect id="Rectángulo_296258" data-name="Rectángulo 296258" width="17.151" height="6.505" transform="translate(0.592 0.591)" fill="#fff"/>
          <path id="Trazado_604479" data-name="Trazado 604479" d="M260.125-1858.753H242.974a.591.591,0,0,1-.592-.591v-6.506a.591.591,0,0,1,.592-.591h17.151a.591.591,0,0,1,.591.591v6.506A.591.591,0,0,1,260.125-1858.753Zm-16.559-1.182h15.967v-5.323H243.565Z" transform="translate(-242.382 1866.441)" fill="#ce3e76"/>
        </g>
        <g id="Grupo_880397" data-name="Grupo 880397" transform="translate(0 15.377)">
          <rect id="Rectángulo_296259" data-name="Rectángulo 296259" width="17.151" height="6.505" transform="translate(0.592 0.592)" fill="#fff"/>
          <path id="Trazado_604480" data-name="Trazado 604480" d="M260.125-1848.87H242.974a.592.592,0,0,1-.592-.592v-6.505a.591.591,0,0,1,.592-.592h17.151a.591.591,0,0,1,.591.592v6.505A.591.591,0,0,1,260.125-1848.87Zm-16.559-1.183h15.967v-5.323H243.565Z" transform="translate(-242.382 1856.559)" fill="#ce3e76"/>
        </g>
      </g>
      <g transform="matrix(1, 0, 0, 1, -7, -26.81)" filter="url(#Trazado_604481)">
        <path id="Trazado_604481-2" data-name="Trazado 604481" d="M676.972-1699.366H1036.12a9.575,9.575,0,0,0,9.575-9.575v-62.239a9.575,9.575,0,0,0-9.575-9.575H676.972a40.694,40.694,0,0,0-40.693,40.694h0A40.694,40.694,0,0,0,676.972-1699.366Z" transform="translate(65.88 2007.44)" fill="#f9fbfc"/>
      </g>
      <path id="Trazado_604482" data-name="Trazado 604482" d="M753.326-1780.755H676.972a40.694,40.694,0,0,0-40.693,40.694h0a40.694,40.694,0,0,0,40.693,40.694h76.354Z" transform="translate(58.876 1980.634)" fill="#345995"/>
      <rect id="Rectángulo_296260" data-name="Rectángulo 296260" width="18.94" height="81.389" transform="translate(793.263 199.879)" opacity="0.5"/>
      <rect id="Rectángulo_296261" data-name="Rectángulo 296261" width="4.798" height="81.389" transform="translate(812.203 199.879)"/>
      <path id="Trazado_604483" data-name="Trazado 604483" d="M677.4-1708.517h0a31.12,31.12,0,0,0,31.119-31.119h0a31.119,31.119,0,0,0-31.119-31.119h0a31.119,31.119,0,0,0-31.118,31.119h0A31.119,31.119,0,0,0,677.4-1708.517Z" transform="translate(58.451 1980.209)" fill="#f9fbfc"/>
      <g id="Grupo_880400" data-name="Grupo 880400" transform="translate(1003.399 208.862)">
        <g id="Grupo_880399" data-name="Grupo 880399">
          <path id="Trazado_604484" data-name="Trazado 604484" d="M989.936-1708.517h0a31.119,31.119,0,0,0,31.119-31.119h0a31.119,31.119,0,0,0-31.119-31.119h0a31.119,31.119,0,0,0-31.119,31.119h0A31.12,31.12,0,0,0,989.936-1708.517Z" transform="translate(-958.226 1771.347)" fill="#fff"/>
          <path id="Trazado_604485" data-name="Trazado 604485" d="M989.91-1707.951a31.747,31.747,0,0,1-31.71-31.711,31.747,31.747,0,0,1,31.71-31.711,31.747,31.747,0,0,1,31.711,31.711A31.747,31.747,0,0,1,989.91-1707.951Zm0-62.238a30.562,30.562,0,0,0-30.527,30.527,30.562,30.562,0,0,0,30.527,30.527,30.563,30.563,0,0,0,30.528-30.527A30.563,30.563,0,0,0,989.91-1770.189Z" transform="translate(-958.2 1771.373)" fill="#345995"/>
        </g>
      </g>
      <g id="Grupo_880401" data-name="Grupo 880401" transform="translate(1080.833 199.879)">
        <path id="Trazado_604486" data-name="Trazado 604486" d="M1053.445-1780.755h-9.364v81.389h9.364a9.575,9.575,0,0,0,9.575-9.575v-62.239A9.575,9.575,0,0,0,1053.445-1780.755Z" transform="translate(-1039.283 1780.755)" fill="#345995"/>
        <rect id="Rectángulo_296262" data-name="Rectángulo 296262" width="4.798" height="81.389" transform="translate(0 0)"/>
      </g>
      <g id="Grupo_880402" data-name="Grupo 880402" transform="translate(726.376 223.025)">
        <path id="Trazado_604487" data-name="Trazado 604487" d="M682.793-1726.355h-7.017v-22.338l-6.891,2.014v-5.314l13.264-4.588h.643Z" transform="translate(-668.885 1756.582)" fill="#345995"/>
      </g>
      <g id="Grupo_880406" data-name="Grupo 880406" transform="translate(1013.149 221.076)">
        <g id="Grupo_880403" data-name="Grupo 880403" transform="translate(9.321)">
          <rect id="Rectángulo_296263" data-name="Rectángulo 296263" width="28.979" height="36.667" transform="translate(0.591 0.592)" fill="#fff"/>
          <path id="Trazado_604488" data-name="Trazado 604488" d="M1007.688-1720.768H978.709a.592.592,0,0,1-.591-.592v-36.667a.592.592,0,0,1,.591-.592h28.979a.591.591,0,0,1,.591.592v36.667A.591.591,0,0,1,1007.688-1720.768Zm-28.387-1.183h27.8v-35.484H979.3Z" transform="translate(-978.118 1758.618)" fill="#345995"/>
        </g>
        <g id="Grupo_880404" data-name="Grupo 880404" transform="translate(0 5.915)">
          <rect id="Rectángulo_296264" data-name="Rectángulo 296264" width="17.151" height="6.505" transform="translate(0.591 0.591)" fill="#fff"/>
          <path id="Trazado_604489" data-name="Trazado 604489" d="M986.125-1744.753H968.974a.591.591,0,0,1-.591-.591v-6.506a.591.591,0,0,1,.591-.591h17.151a.591.591,0,0,1,.591.591v6.506A.591.591,0,0,1,986.125-1744.753Zm-16.56-1.182h15.969v-5.323H969.565Z" transform="translate(-968.383 1752.441)" fill="#345995"/>
        </g>
        <g id="Grupo_880405" data-name="Grupo 880405" transform="translate(0 15.377)">
          <rect id="Rectángulo_296265" data-name="Rectángulo 296265" width="17.151" height="6.505" transform="translate(0.591 0.592)" fill="#fff"/>
          <path id="Trazado_604490" data-name="Trazado 604490" d="M986.125-1734.87H968.974a.591.591,0,0,1-.591-.592v-6.505a.591.591,0,0,1,.591-.592h17.151a.591.591,0,0,1,.591.592v6.505A.591.591,0,0,1,986.125-1734.87Zm-16.56-1.183h15.969v-5.323H969.565Z" transform="translate(-968.383 1742.559)" fill="#345995"/>
        </g>
      </g>
      <g transform="matrix(1, 0, 0, 1, -7, -26.81)" filter="url(#Trazado_604491)">
        <path id="Trazado_604491-2" data-name="Trazado 604491" d="M-49.028-1582.366H310.119a9.575,9.575,0,0,0,9.575-9.575v-62.238a9.575,9.575,0,0,0-9.575-9.575H-49.028a40.694,40.694,0,0,0-40.693,40.694h0A40.694,40.694,0,0,0-49.028-1582.366Z" transform="translate(96.72 2002.47)" fill="#f9fbfc"/>
      </g>
      <path id="Trazado_604492" data-name="Trazado 604492" d="M27.326-1663.755H-49.028a40.694,40.694,0,0,0-40.693,40.694h0a40.694,40.694,0,0,0,40.693,40.694H27.326Z" transform="translate(89.721 1975.663)" fill="#75c9ad"/>
      <rect id="Rectángulo_296266" data-name="Rectángulo 296266" width="18.94" height="81.389" transform="translate(98.108 311.908)" opacity="0.5"/>
      <rect id="Rectángulo_296267" data-name="Rectángulo 296267" width="4.798" height="81.389" transform="translate(117.048 311.908)"/>
      <path id="Trazado_604493" data-name="Trazado 604493" d="M-48.6-1591.517h0a31.12,31.12,0,0,0,31.119-31.119h0A31.12,31.12,0,0,0-48.6-1653.755h0a31.119,31.119,0,0,0-31.118,31.119h0A31.119,31.119,0,0,0-48.6-1591.517Z" transform="translate(89.296 1975.238)" fill="#f9fbfc"/>
      <g id="Grupo_880408" data-name="Grupo 880408" transform="translate(308.244 320.892)">
        <g id="Grupo_880407" data-name="Grupo 880407" transform="translate(0)">
          <path id="Trazado_604494" data-name="Trazado 604494" d="M263.936-1591.517h0a31.119,31.119,0,0,0,31.119-31.119h0a31.119,31.119,0,0,0-31.119-31.119h0a31.12,31.12,0,0,0-31.119,31.119h0A31.12,31.12,0,0,0,263.936-1591.517Z" transform="translate(-232.226 1654.347)" fill="#fff"/>
          <path id="Trazado_604495" data-name="Trazado 604495" d="M263.91-1590.951a31.746,31.746,0,0,1-31.71-31.711,31.746,31.746,0,0,1,31.71-31.711,31.747,31.747,0,0,1,31.711,31.711A31.747,31.747,0,0,1,263.91-1590.951Zm0-62.238a30.562,30.562,0,0,0-30.527,30.527,30.562,30.562,0,0,0,30.527,30.527,30.563,30.563,0,0,0,30.528-30.527A30.563,30.563,0,0,0,263.91-1653.19Z" transform="translate(-232.2 1654.373)" fill="#75c9ad"/>
        </g>
      </g>
      <g id="Grupo_880409" data-name="Grupo 880409" transform="translate(385.678 311.908)">
        <path id="Trazado_604496" data-name="Trazado 604496" d="M327.445-1663.755h-9.364v81.389h9.364a9.575,9.575,0,0,0,9.575-9.575v-62.238A9.575,9.575,0,0,0,327.445-1663.755Z" transform="translate(-313.283 1663.755)" fill="#75c9ad"/>
        <rect id="Rectángulo_296268" data-name="Rectángulo 296268" width="4.798" height="81.389" transform="translate(0 0)"/>
      </g>
      <g id="Grupo_880410" data-name="Grupo 880410" transform="translate(28.749 334.619)">
        <path id="Trazado_604497" data-name="Trazado 604497" d="M-52.429-1627.415h3.3q3.924,0,3.924-3.841a3.322,3.322,0,0,0-.935-2.44,3.544,3.544,0,0,0-2.637-.944,3.788,3.788,0,0,0-2.418.81,2.467,2.467,0,0,0-1.028,2.014h-7a7.163,7.163,0,0,1,1.328-4.256,8.772,8.772,0,0,1,3.685-2.917,12.6,12.6,0,0,1,5.179-1.048q5.046,0,7.93,2.3a7.657,7.657,0,0,1,2.887,6.331,6.387,6.387,0,0,1-1.194,3.686,8.512,8.512,0,0,1-3.478,2.813,8.121,8.121,0,0,1,3.778,2.646,6.971,6.971,0,0,1,1.37,4.391,7.8,7.8,0,0,1-3.114,6.477,12.929,12.929,0,0,1-8.18,2.429,13.4,13.4,0,0,1-5.511-1.132,8.631,8.631,0,0,1-3.851-3.135,8.144,8.144,0,0,1-1.308-4.556h7.038a3.147,3.147,0,0,0,1.121,2.407,3.953,3.953,0,0,0,2.761,1.018,4.147,4.147,0,0,0,2.949-1.028,3.436,3.436,0,0,0,1.1-2.625,4.018,4.018,0,0,0-1.142-3.239,4.779,4.779,0,0,0-3.156-.955h-3.4Z" transform="translate(59.696 1640.037)" fill="#75c9ad"/>
      </g>
      <g id="Grupo_880414" data-name="Grupo 880414" transform="translate(317.993 333.105)">
        <g id="Grupo_880411" data-name="Grupo 880411" transform="translate(9.322)">
          <rect id="Rectángulo_296269" data-name="Rectángulo 296269" width="28.979" height="36.667" transform="translate(0.591 0.592)" fill="#fff"/>
          <path id="Trazado_604498" data-name="Trazado 604498" d="M281.688-1603.767H252.709a.591.591,0,0,1-.591-.592v-36.667a.591.591,0,0,1,.591-.592h28.979a.592.592,0,0,1,.592.592v36.667A.592.592,0,0,1,281.688-1603.767Zm-28.387-1.183h27.8v-35.484H253.3Z" transform="translate(-252.118 1641.618)" fill="#75c9ad"/>
        </g>
        <g id="Grupo_880412" data-name="Grupo 880412" transform="translate(0 5.915)">
          <rect id="Rectángulo_296270" data-name="Rectángulo 296270" width="17.151" height="6.505" transform="translate(0.592 0.591)" fill="#fff"/>
          <path id="Trazado_604499" data-name="Trazado 604499" d="M260.125-1627.753H242.974a.591.591,0,0,1-.592-.591v-6.506a.591.591,0,0,1,.592-.591h17.151a.591.591,0,0,1,.591.591v6.506A.59.59,0,0,1,260.125-1627.753Zm-16.559-1.182h15.967v-5.323H243.565Z" transform="translate(-242.382 1635.441)" fill="#75c9ad"/>
        </g>
        <g id="Grupo_880413" data-name="Grupo 880413" transform="translate(0 15.377)">
          <rect id="Rectángulo_296271" data-name="Rectángulo 296271" width="17.151" height="6.505" transform="translate(0.592 0.592)" fill="#fff"/>
          <path id="Trazado_604500" data-name="Trazado 604500" d="M260.125-1617.87H242.974a.592.592,0,0,1-.592-.592v-6.505a.591.591,0,0,1,.592-.592h17.151a.591.591,0,0,1,.591.592v6.505A.591.591,0,0,1,260.125-1617.87Zm-16.559-1.183h15.967v-5.323H243.565Z" transform="translate(-242.382 1625.559)" fill="#75c9ad"/>
        </g>
      </g>
      <circle id="Elipse_5072" data-name="Elipse 5072" cx="7.007" cy="7.007" r="7.007" transform="translate(593.616 125.24)" fill="#efc942"/>
      <g id="Grupo_880415" data-name="Grupo 880415" transform="translate(408.153 129.853)">
        <path id="Trazado_604501" data-name="Trazado 604501" d="M527.453-1849.1H338.936a2.394,2.394,0,0,1-2.394-2.394,2.394,2.394,0,0,1,2.394-2.394H527.453a2.393,2.393,0,0,1,2.394,2.394A2.393,2.393,0,0,1,527.453-1849.1Z" transform="translate(-336.542 1853.888)" fill="#efc942"/>
      </g>
      <g id="Grupo_880416" data-name="Grupo 880416" transform="translate(950.052 116.052)">
        <circle id="Elipse_5073" data-name="Elipse 5073" cx="7.007" cy="7.007" r="7.007" transform="translate(0.958 0.957)" fill="#efc942"/>
        <path id="Trazado_604502" data-name="Trazado 604502" d="M910.452-1852.373a7.974,7.974,0,0,1-7.966-7.964,7.974,7.974,0,0,1,7.966-7.965,7.973,7.973,0,0,1,7.965,7.965A7.973,7.973,0,0,1,910.452-1852.373Zm0-14.014a6.056,6.056,0,0,0-6.05,6.05,6.056,6.056,0,0,0,6.05,6.05,6.056,6.056,0,0,0,6.05-6.05A6.056,6.056,0,0,0,910.452-1866.387Z" transform="translate(-902.486 1868.302)" fill="#efc942"/>
      </g>
      <g id="Grupo_880417" data-name="Grupo 880417" transform="translate(955.624 123.183)">
        <path id="Trazado_604503" data-name="Trazado 604503" d="M910.7-1793.942a2.393,2.393,0,0,1-2.394-2.394v-62.125a2.393,2.393,0,0,1,2.394-2.394,2.393,2.393,0,0,1,2.394,2.394v62.125A2.393,2.393,0,0,1,910.7-1793.942Z" transform="translate(-908.305 1860.854)" fill="#efc942"/>
      </g>
      <g id="Grupo_880418" data-name="Grupo 880418" transform="translate(608.16 139.428)">
        <path id="Trazado_604504" data-name="Trazado 604504" d="M617.832-1741.434a2.391,2.391,0,0,1-1.948-1L545.872-1840.1a2.394,2.394,0,0,1,.551-3.34,2.393,2.393,0,0,1,3.341.551l70.012,97.666a2.394,2.394,0,0,1-.551,3.34A2.384,2.384,0,0,1,617.832-1741.434Z" transform="translate(-545.424 1843.888)" fill="#efc942"/>
      </g>
      <g id="Grupo_880419" data-name="Grupo 880419" transform="translate(590.727 121.941)">
        <path id="Trazado_604505" data-name="Trazado 604505" d="M537.651-1837.1a13.81,13.81,0,0,1-9.83-4.072,2.058,2.058,0,0,1,0-2.913,2.059,2.059,0,0,1,2.912,0,9.72,9.72,0,0,0,6.918,2.866,9.794,9.794,0,0,0,9.783-9.783,9.763,9.763,0,0,0-3.511-7.509,2.06,2.06,0,0,1-.259-2.9,2.059,2.059,0,0,1,2.9-.259A13.878,13.878,0,0,1,551.554-1851,13.918,13.918,0,0,1,537.651-1837.1Z" transform="translate(-527.217 1862.151)" fill="#efc942"/>
      </g>
      <circle id="Elipse_5074" data-name="Elipse 5074" cx="7.007" cy="7.007" r="7.007" transform="translate(593.616 346.593)" fill="#efc942"/>
      <g id="Grupo_880420" data-name="Grupo 880420" transform="translate(408.153 351.206)">
        <path id="Trazado_604506" data-name="Trazado 604506" d="M527.453-1617.925H338.936a2.394,2.394,0,0,1-2.394-2.394,2.394,2.394,0,0,1,2.394-2.394H527.453a2.393,2.393,0,0,1,2.394,2.394A2.393,2.393,0,0,1,527.453-1617.925Z" transform="translate(-336.542 1622.713)" fill="#efc942"/>
      </g>
      <g id="Grupo_880421" data-name="Grupo 880421" transform="translate(608.16 243.965)">
        <path id="Trazado_604507" data-name="Trazado 604507" d="M547.816-1632.259a2.384,2.384,0,0,1-1.393-.448,2.394,2.394,0,0,1-.551-3.34l70.012-97.666a2.394,2.394,0,0,1,3.341-.552,2.4,2.4,0,0,1,.551,3.341l-70.012,97.666A2.391,2.391,0,0,1,547.816-1632.259Z" transform="translate(-545.424 1734.713)" fill="#efc942"/>
      </g>
      <g id="Grupo_880422" data-name="Grupo 880422" transform="translate(590.727 339.06)">
        <path id="Trazado_604508" data-name="Trazado 604508" d="M545.245-1610.349a2.053,2.053,0,0,1-1.581-.738,2.06,2.06,0,0,1,.259-2.9,9.763,9.763,0,0,0,3.511-7.508,9.8,9.8,0,0,0-9.783-9.784,9.72,9.72,0,0,0-6.918,2.866,2.058,2.058,0,0,1-2.912,0,2.058,2.058,0,0,1,0-2.913,13.809,13.809,0,0,1,9.83-4.071,13.918,13.918,0,0,1,13.9,13.9,13.874,13.874,0,0,1-4.989,10.668A2.05,2.05,0,0,1,545.245-1610.349Z" transform="translate(-527.217 1635.398)" fill="#efc942"/>
      </g>
      <g id="Grupo_880423" data-name="Grupo 880423" transform="translate(675.957 224.759)">
        <rect id="Rectángulo_296272" data-name="Rectángulo 296272" width="29.683" height="29.683" transform="translate(0.738 0.738)" fill="#3d3d3d"/>
        <path id="Trazado_604509" data-name="Trazado 604509" d="M646.65-1723.612H616.967a.739.739,0,0,1-.738-.738v-29.683a.739.739,0,0,1,.738-.738H646.65a.739.739,0,0,1,.738.738v29.683A.739.739,0,0,1,646.65-1723.612Zm-28.945-1.476h28.206v-28.206H617.706Z" transform="translate(-616.229 1754.771)" fill="#3d3d3d"/>
      </g>
      <g id="Grupo_880424" data-name="Grupo 880424" transform="translate(948.469 185.787)">
        <rect id="Rectángulo_296273" data-name="Rectángulo 296273" width="18.193" height="18.193" transform="translate(0.452 0.452)" fill="#3d3d3d"/>
        <path id="Trazado_604510" data-name="Trazado 604510" d="M919.478-1776.375H901.285a.452.452,0,0,1-.452-.452v-18.193a.452.452,0,0,1,.452-.452h18.193a.451.451,0,0,1,.451.452v18.193A.451.451,0,0,1,919.478-1776.375Zm-17.742-.9h17.29v-17.289h-17.29Z" transform="translate(-900.833 1795.472)" fill="#3d3d3d"/>
      </g>
      <g id="Grupo_880425" data-name="Grupo 880425" transform="translate(955.331 111.554)">
        <path id="Trazado_604511" data-name="Trazado 604511" d="M910.395-1857.68a2.394,2.394,0,0,1-2.218-1.491,2.393,2.393,0,0,1,1.314-3.12l25.853-10.533a2.4,2.4,0,0,1,3.12,1.314,2.393,2.393,0,0,1-1.314,3.12L911.3-1857.857A2.377,2.377,0,0,1,910.395-1857.68Z" transform="translate(-908 1873)" fill="#efc942"/>
      </g>
      <g id="Grupo_880426" data-name="Grupo 880426" transform="translate(1140.296 233.163)">
        <circle id="Elipse_5075" data-name="Elipse 5075" cx="7.007" cy="7.007" r="7.007" transform="translate(0.957 0.958)" fill="#efc942"/>
        <path id="Trazado_604512" data-name="Trazado 604512" d="M1132.137-1730.064a7.973,7.973,0,0,1-7.965-7.965,7.974,7.974,0,0,1,7.965-7.965,7.975,7.975,0,0,1,7.965,7.965A7.974,7.974,0,0,1,1132.137-1730.064Zm0-14.015a6.057,6.057,0,0,0-6.05,6.05,6.056,6.056,0,0,0,6.05,6.05,6.056,6.056,0,0,0,6.051-6.05A6.057,6.057,0,0,0,1132.137-1744.079Z" transform="translate(-1124.172 1745.994)" fill="#efc942"/>
      </g>
      <g id="Grupo_880427" data-name="Grupo 880427" transform="translate(1104.205 238.735)">
        <path id="Trazado_604513" data-name="Trazado 604513" d="M1099.4-1735.388h-34.589c-.736,0-1.333-1.071-1.333-2.394s.6-2.394,1.333-2.394H1099.4c.736,0,1.333,1.072,1.333,2.394S1100.137-1735.388,1099.4-1735.388Z" transform="translate(-1063.479 1740.175)" fill="#efc942"/>
      </g>
      <g id="Grupo_880428" data-name="Grupo 880428" transform="translate(955.331 122.085)">
        <path id="Trazado_604514" data-name="Trazado 604514" d="M936.246-1846.68a2.377,2.377,0,0,1-.9-.177l-25.853-10.533a2.393,2.393,0,0,1-1.314-3.12,2.393,2.393,0,0,1,3.12-1.314l25.853,10.533a2.393,2.393,0,0,1,1.314,3.12A2.394,2.394,0,0,1,936.246-1846.68Z" transform="translate(-908 1862.001)" fill="#efc942"/>
      </g>
      <g id="Grupo_880429" data-name="Grupo 880429" transform="translate(961.077 122.086)">
        <path id="Trazado_604515" data-name="Trazado 604515" d="M1048.052-1859.606a2.4,2.4,0,0,1,2.394-2.394h0a2.4,2.4,0,0,1,2.394,2.394h0a2.4,2.4,0,0,1-2.394,2.394h0A2.4,2.4,0,0,1,1048.052-1859.606Zm-9.575,0a2.4,2.4,0,0,1,2.394-2.394h0a2.4,2.4,0,0,1,2.394,2.394h0a2.4,2.4,0,0,1-2.394,2.394h0A2.4,2.4,0,0,1,1038.477-1859.606Zm-9.575,0A2.4,2.4,0,0,1,1031.3-1862h0a2.4,2.4,0,0,1,2.394,2.394h0a2.4,2.4,0,0,1-2.394,2.394h0A2.4,2.4,0,0,1,1028.9-1859.606Zm-9.575,0a2.4,2.4,0,0,1,2.394-2.394h0a2.4,2.4,0,0,1,2.394,2.394h0a2.4,2.4,0,0,1-2.394,2.394h0A2.4,2.4,0,0,1,1019.327-1859.606Zm-9.575,0a2.4,2.4,0,0,1,2.394-2.394h0a2.4,2.4,0,0,1,2.394,2.394h0a2.4,2.4,0,0,1-2.394,2.394h0A2.4,2.4,0,0,1,1009.751-1859.606Zm-9.575,0a2.4,2.4,0,0,1,2.394-2.394h0a2.4,2.4,0,0,1,2.394,2.394h0a2.4,2.4,0,0,1-2.394,2.394h0A2.4,2.4,0,0,1,1000.176-1859.606Zm-9.575,0a2.4,2.4,0,0,1,2.394-2.394h0a2.4,2.4,0,0,1,2.394,2.394h0a2.4,2.4,0,0,1-2.394,2.394h0A2.4,2.4,0,0,1,990.6-1859.606Zm-9.575,0A2.4,2.4,0,0,1,983.42-1862h0a2.4,2.4,0,0,1,2.394,2.394h0a2.4,2.4,0,0,1-2.394,2.394h0A2.4,2.4,0,0,1,981.026-1859.606Zm-9.575,0a2.4,2.4,0,0,1,2.394-2.394h0a2.4,2.4,0,0,1,2.394,2.394h0a2.4,2.4,0,0,1-2.394,2.394h0A2.4,2.4,0,0,1,971.451-1859.606Zm-9.575,0a2.4,2.4,0,0,1,2.394-2.394h0a2.4,2.4,0,0,1,2.394,2.394h0a2.4,2.4,0,0,1-2.394,2.394h0A2.4,2.4,0,0,1,961.876-1859.606Zm-9.575,0a2.4,2.4,0,0,1,2.394-2.394h0a2.4,2.4,0,0,1,2.394,2.394h0a2.4,2.4,0,0,1-2.394,2.394h0A2.4,2.4,0,0,1,952.3-1859.606Zm-9.575,0a2.4,2.4,0,0,1,2.394-2.394h0a2.4,2.4,0,0,1,2.394,2.394h0a2.4,2.4,0,0,1-2.394,2.394h0A2.4,2.4,0,0,1,942.725-1859.606Zm-9.575,0a2.4,2.4,0,0,1,2.394-2.394h0a2.4,2.4,0,0,1,2.394,2.394h0a2.4,2.4,0,0,1-2.394,2.394h0A2.4,2.4,0,0,1,933.15-1859.606Zm-9.575,0a2.4,2.4,0,0,1,2.394-2.394h0a2.4,2.4,0,0,1,2.394,2.394h0a2.4,2.4,0,0,1-2.394,2.394h0A2.4,2.4,0,0,1,923.575-1859.606Zm-9.575,0a2.4,2.4,0,0,1,2.394-2.394h0a2.4,2.4,0,0,1,2.394,2.394h0a2.4,2.4,0,0,1-2.394,2.394h0A2.4,2.4,0,0,1,914-1859.606Z" transform="translate(-914 1862)" fill="#efc942"/>
      </g>
      <g id="Grupo_880430" data-name="Grupo 880430" transform="translate(786.329 0.002)">
        <path id="Trazado_604516" data-name="Trazado 604516" d="M889.72-1805.38a2.4,2.4,0,0,1,.229-3.38h0a2.4,2.4,0,0,1,3.381.23h0a2.4,2.4,0,0,1-.23,3.38h0a2.388,2.388,0,0,1-1.57.584h0A2.385,2.385,0,0,1,889.72-1805.38Zm-6.3-7.2a2.4,2.4,0,0,1,.22-3.38h0a2.4,2.4,0,0,1,3.38.22h0a2.4,2.4,0,0,1-.221,3.38h0a2.369,2.369,0,0,1-1.579.594h0A2.4,2.4,0,0,1,883.419-1812.58Zm-6.311-7.21a2.4,2.4,0,0,1,.231-3.38h0a2.4,2.4,0,0,1,3.38.23h0a2.383,2.383,0,0,1-.23,3.37h0a2.349,2.349,0,0,1-1.57.594h0A2.42,2.42,0,0,1,877.108-1819.79Zm-6.3-7.21a2.4,2.4,0,0,1,.22-3.38h0a2.4,2.4,0,0,1,3.38.23h0a2.4,2.4,0,0,1-.22,3.38h0a2.441,2.441,0,0,1-1.58.594h0A2.359,2.359,0,0,1,870.809-1827Zm-6.311-7.2a2.4,2.4,0,0,1,.231-3.38h0a2.4,2.4,0,0,1,3.38.22h0a2.4,2.4,0,0,1-.23,3.38h0a2.349,2.349,0,0,1-1.57.594h0A2.42,2.42,0,0,1,864.5-1834.2Zm-6.3-7.21a2.4,2.4,0,0,1,.221-3.38h0a2.4,2.4,0,0,1,3.38.23h0a2.4,2.4,0,0,1-.22,3.38h0a2.422,2.422,0,0,1-1.58.594h0A2.379,2.379,0,0,1,858.2-1841.411Zm-6.31-7.2a2.4,2.4,0,0,1,.231-3.38h0a2.4,2.4,0,0,1,3.38.22h0a2.4,2.4,0,0,1-.23,3.38h0a2.349,2.349,0,0,1-1.57.594h0A2.42,2.42,0,0,1,851.887-1848.611Zm-6.3-7.21a2.4,2.4,0,0,1,.221-3.38h0a2.4,2.4,0,0,1,3.38.23h0a2.4,2.4,0,0,1-.22,3.38h0a2.432,2.432,0,0,1-1.58.584h0A2.387,2.387,0,0,1,845.587-1855.822Zm-6.309-7.21a2.382,2.382,0,0,1,.23-3.37h0a2.4,2.4,0,0,1,3.38.22h0a2.4,2.4,0,0,1-.23,3.38h0a2.4,2.4,0,0,1-1.57.594h0A2.394,2.394,0,0,1,839.278-1863.032Zm-6.3-7.2a2.4,2.4,0,0,1,.221-3.38h0a2.4,2.4,0,0,1,3.38.22h0a2.4,2.4,0,0,1-.22,3.38h0a2.374,2.374,0,0,1-1.581.594h0A2.4,2.4,0,0,1,832.976-1870.232Zm-6.309-7.21a2.394,2.394,0,0,1,.23-3.38h0a2.4,2.4,0,0,1,3.38.23h0a2.4,2.4,0,0,1-.23,3.38h0a2.4,2.4,0,0,1-1.57.594h0A2.4,2.4,0,0,1,826.667-1877.442Zm-6.3-7.2a2.4,2.4,0,0,1,.22-3.38h0a2.4,2.4,0,0,1,3.379.22h0a2.4,2.4,0,0,1-.219,3.38h0a2.376,2.376,0,0,1-1.581.594h0A2.4,2.4,0,0,1,820.367-1884.643Zm-6.31-7.21a2.4,2.4,0,0,1,.23-3.38h0a2.4,2.4,0,0,1,3.38.23h0a2.4,2.4,0,0,1-.23,3.38h0a2.4,2.4,0,0,1-1.58.594h0A2.423,2.423,0,0,1,814.057-1891.853Zm-6.3-7.2a2.394,2.394,0,0,1,.22-3.38h0a2.393,2.393,0,0,1,3.379.22h0a2.394,2.394,0,0,1-.219,3.38h0a2.393,2.393,0,0,1-1.58.594h0A2.382,2.382,0,0,1,807.756-1899.053Zm-6.31-7.21a2.4,2.4,0,0,1,.23-3.38h0a2.384,2.384,0,0,1,3.37.23h0a2.375,2.375,0,0,1-.22,3.37h0a2.352,2.352,0,0,1-1.571.594h0A2.418,2.418,0,0,1,801.446-1906.263Zm-6.3-7.21a2.4,2.4,0,0,1,.22-3.38h0a2.4,2.4,0,0,1,3.379.23h0a2.394,2.394,0,0,1-.219,3.38h0a2.424,2.424,0,0,1-1.58.594h0A2.359,2.359,0,0,1,795.146-1913.474Zm-6.31-7.2a2.4,2.4,0,0,1,.23-3.38h0a2.4,2.4,0,0,1,3.379.22h0a2.394,2.394,0,0,1-.229,3.38h0a2.351,2.351,0,0,1-1.57.594h0A2.417,2.417,0,0,1,788.836-1920.674Zm-6.3-7.21a2.382,2.382,0,0,1,.22-3.37h0a2.386,2.386,0,0,1,3.38.22h0a2.4,2.4,0,0,1-.22,3.38h0a2.422,2.422,0,0,1-1.58.594h0A2.359,2.359,0,0,1,782.535-1927.884Zm-6.31-7.2a2.4,2.4,0,0,1,.23-3.38h0a2.393,2.393,0,0,1,3.379.22h0a2.4,2.4,0,0,1-.229,3.38h0a2.35,2.35,0,0,1-1.57.594h0A2.417,2.417,0,0,1,776.225-1935.085Zm-6.3-7.21a2.394,2.394,0,0,1,.219-3.38h0a2.4,2.4,0,0,1,3.381.23h0a2.4,2.4,0,0,1-.231,3.38h0a2.384,2.384,0,0,1-1.569.584h0A2.383,2.383,0,0,1,769.925-1942.295Zm-6.31-7.21a2.384,2.384,0,0,1,.23-3.37h0a2.4,2.4,0,0,1,3.38.22h0a2.4,2.4,0,0,1-.231,3.38h0a2.344,2.344,0,0,1-1.569.594h0A2.393,2.393,0,0,1,763.615-1949.5Zm-6.3-7.2a2.4,2.4,0,0,1,.219-3.38h0a2.4,2.4,0,0,1,3.381.23h0a2.382,2.382,0,0,1-.231,3.37h0a2.345,2.345,0,0,1-1.569.594h0A2.383,2.383,0,0,1,757.315-1956.705Zm-6.31-7.21a2.384,2.384,0,0,1,.229-3.37h0a2.4,2.4,0,0,1,3.381.22h0a2.4,2.4,0,0,1-.231,3.38h0a2.394,2.394,0,0,1-1.569.594h0A2.394,2.394,0,0,1,751-1963.915Zm-6.3-7.2a2.394,2.394,0,0,1,.22-3.38h0a2.4,2.4,0,0,1,3.38.23h0a2.384,2.384,0,0,1-.221,3.37h0a2.387,2.387,0,0,1-1.579.594h0A2.383,2.383,0,0,1,744.7-1971.116Zm-6.31-7.21a2.4,2.4,0,0,1,.229-3.38h0a2.4,2.4,0,0,1,3.381.23h0a2.394,2.394,0,0,1-.231,3.38h0a2.4,2.4,0,0,1-1.579.594h0A2.39,2.39,0,0,1,738.394-1978.326Zm-6.3-7.2a2.4,2.4,0,0,1,.22-3.38h0a2.4,2.4,0,0,1,3.38.22h0a2.4,2.4,0,0,1-.221,3.38h0a2.368,2.368,0,0,1-1.579.594h0A2.4,2.4,0,0,1,732.094-1985.526Z" transform="translate(-731.499 1989.502)" fill="#efc942"/>
      </g>
      <g id="Grupo_880431" data-name="Grupo 880431" transform="translate(687.272 0)">
        <path id="Trazado_604517" data-name="Trazado 604517" d="M629.448-1767a2.4,2.4,0,0,1-1.187-3.169h0a2.4,2.4,0,0,1,3.169-1.2h0a2.4,2.4,0,0,1,1.186,3.179h0a2.37,2.37,0,0,1-2.173,1.4h0A2.449,2.449,0,0,1,629.448-1767Zm3.963-8.723a2.4,2.4,0,0,1-1.186-3.169h0a2.4,2.4,0,0,1,3.169-1.187h0a2.394,2.394,0,0,1,1.187,3.169h0a2.4,2.4,0,0,1-2.183,1.407h0A2.311,2.311,0,0,1,633.411-1775.726Zm3.965-8.713a2.389,2.389,0,0,1-1.187-3.169h0a2.389,2.389,0,0,1,3.168-1.187h0a2.39,2.39,0,0,1,1.188,3.169h0a2.4,2.4,0,0,1-2.184,1.407h0A2.414,2.414,0,0,1,637.376-1784.439Zm3.964-8.713a2.4,2.4,0,0,1-1.188-3.169h0a2.4,2.4,0,0,1,3.17-1.2h0a2.4,2.4,0,0,1,1.187,3.169h0a2.39,2.39,0,0,1-2.183,1.407h0A2.409,2.409,0,0,1,641.34-1793.152Zm3.963-8.723a2.4,2.4,0,0,1-1.2-3.169h0a2.4,2.4,0,0,1,3.18-1.187h0a2.4,2.4,0,0,1,1.187,3.169h0a2.4,2.4,0,0,1-2.183,1.408h0A2.389,2.389,0,0,1,645.3-1801.875Zm3.956-8.713a2.4,2.4,0,0,1-1.187-3.169h0a2.393,2.393,0,0,1,3.169-1.187h0a2.382,2.382,0,0,1,1.187,3.169h0a2.373,2.373,0,0,1-2.174,1.4h0A2.451,2.451,0,0,1,649.259-1810.589Zm3.964-8.713a2.412,2.412,0,0,1-1.187-3.179h0a2.4,2.4,0,0,1,3.169-1.187h0a2.392,2.392,0,0,1,1.186,3.169h0a2.389,2.389,0,0,1-2.182,1.407h0A2.438,2.438,0,0,1,653.223-1819.3Zm3.963-8.723a2.391,2.391,0,0,1-1.186-3.169h0a2.39,2.39,0,0,1,3.169-1.187h0a2.391,2.391,0,0,1,1.187,3.169h0a2.4,2.4,0,0,1-2.183,1.407h0A2.428,2.428,0,0,1,657.186-1828.025Zm3.965-8.713a2.389,2.389,0,0,1-1.187-3.169h0a2.389,2.389,0,0,1,3.168-1.187h0a2.4,2.4,0,0,1,1.188,3.169h0a2.4,2.4,0,0,1-2.184,1.4h0A2.373,2.373,0,0,1,661.151-1836.738Zm3.964-8.723a2.381,2.381,0,0,1-1.187-3.169h0a2.4,2.4,0,0,1,3.169-1.187h0a2.4,2.4,0,0,1,1.186,3.169h0a2.4,2.4,0,0,1-2.182,1.408h0A2.24,2.24,0,0,1,665.115-1845.461Zm3.955-8.713a2.4,2.4,0,0,1-1.188-3.169h0a2.394,2.394,0,0,1,3.17-1.187h0a2.39,2.39,0,0,1,1.187,3.169h0a2.381,2.381,0,0,1-2.174,1.408h0A2.46,2.46,0,0,1,669.07-1854.175Zm3.964-8.713a2.4,2.4,0,0,1-1.187-3.169h0a2.394,2.394,0,0,1,3.169-1.2h0a2.4,2.4,0,0,1,1.187,3.169h0a2.379,2.379,0,0,1-2.183,1.407h0A2.438,2.438,0,0,1,673.034-1862.888Zm3.964-8.723a2.389,2.389,0,0,1-1.187-3.169h0a2.4,2.4,0,0,1,3.169-1.187h0a2.392,2.392,0,0,1,1.186,3.169h0a2.4,2.4,0,0,1-2.182,1.408h0A2.27,2.27,0,0,1,677-1871.611Zm3.964-8.713a2.391,2.391,0,0,1-1.188-3.169h0a2.392,2.392,0,0,1,3.17-1.187h0a2.4,2.4,0,0,1,1.187,3.169h0a2.4,2.4,0,0,1-2.183,1.4h0A2.4,2.4,0,0,1,680.962-1880.324Zm3.964-8.713a2.387,2.387,0,0,1-1.187-3.169h0a2.394,2.394,0,0,1,3.169-1.2h0a2.412,2.412,0,0,1,1.187,3.179h0a2.4,2.4,0,0,1-2.184,1.4h0A2.374,2.374,0,0,1,684.926-1889.038Zm3.955-8.723a2.4,2.4,0,0,1-1.187-3.169h0a2.392,2.392,0,0,1,3.168-1.187h0a2.382,2.382,0,0,1,1.188,3.169h0a2.384,2.384,0,0,1-2.174,1.408h0A2.463,2.463,0,0,1,688.881-1897.761Zm3.964-8.714a2.4,2.4,0,0,1-1.188-3.169h0a2.391,2.391,0,0,1,3.17-1.187h0a2.39,2.39,0,0,1,1.187,3.169h0a2.4,2.4,0,0,1-2.183,1.4h0A2.438,2.438,0,0,1,692.845-1906.474Zm3.963-8.713a2.4,2.4,0,0,1-1.186-3.179h0a2.4,2.4,0,0,1,3.169-1.187h0a2.394,2.394,0,0,1,1.187,3.169h0a2.389,2.389,0,0,1-2.183,1.408h0A2.446,2.446,0,0,1,696.808-1915.188Zm3.965-8.723a2.389,2.389,0,0,1-1.187-3.169h0a2.4,2.4,0,0,1,3.168-1.187h0a2.4,2.4,0,0,1,1.188,3.169h0a2.406,2.406,0,0,1-2.183,1.407h0A2.415,2.415,0,0,1,700.773-1923.911Zm3.964-8.713a2.386,2.386,0,0,1-1.188-3.169h0a2.4,2.4,0,0,1,3.17-1.2h0a2.412,2.412,0,0,1,1.187,3.179h0a2.4,2.4,0,0,1-2.183,1.4h0A2.37,2.37,0,0,1,704.737-1932.624Zm3.955-8.723a2.4,2.4,0,0,1-1.187-3.169h0a2.4,2.4,0,0,1,3.169-1.187h0a2.394,2.394,0,0,1,1.187,3.169h0a2.382,2.382,0,0,1-2.174,1.408h0A2.313,2.313,0,0,1,708.692-1941.347Zm3.964-8.714a2.389,2.389,0,0,1-1.187-3.169h0a2.389,2.389,0,0,1,3.168-1.187h0a2.39,2.39,0,0,1,1.188,3.169h0a2.4,2.4,0,0,1-2.184,1.408h0A2.452,2.452,0,0,1,712.656-1950.06Zm3.964-8.713a2.4,2.4,0,0,1-1.187-3.169h0a2.382,2.382,0,0,1,3.169-1.187h0a2.381,2.381,0,0,1,1.186,3.16h0a2.388,2.388,0,0,1-2.182,1.408h0A2.4,2.4,0,0,1,716.62-1958.774Zm3.963-8.723a2.39,2.39,0,0,1-1.186-3.169h0a2.4,2.4,0,0,1,3.169-1.187h0a2.4,2.4,0,0,1,1.187,3.169h0a2.4,2.4,0,0,1-2.183,1.407h0A2.28,2.28,0,0,1,720.583-1967.5Zm3.965-8.713a2.384,2.384,0,0,1-1.187-3.169h0a2.389,2.389,0,0,1,3.168-1.187h0a2.4,2.4,0,0,1,1.188,3.169h0a2.4,2.4,0,0,1-2.184,1.4h0A2.372,2.372,0,0,1,724.548-1976.21Zm3.955-8.713a2.4,2.4,0,0,1-1.187-3.169h0a2.4,2.4,0,0,1,3.169-1.2h0a2.408,2.408,0,0,1,1.2,3.179h0a2.4,2.4,0,0,1-2.183,1.4h0A2.447,2.447,0,0,1,728.5-1984.923Z" transform="translate(-628.047 1989.503)" fill="#efc942"/>
      </g>
    </g>
    <g id="Grupo_880433" data-name="Grupo 880433" transform="translate(1267.843 8158.777)">
      <path id="Trazado_603911" data-name="Trazado 603911" d="M5005.485,3345.521a30.429,30.429,0,1,1-30.43-30.429A30.429,30.429,0,0,1,5005.485,3345.521Z" transform="translate(-4940.756 -3311.221)" fill="#fecb2f"/>
      <g id="Grupo_879765" data-name="Grupo 879765" transform="translate(11.059 15.012)">
        <path id="Trazado_603912" data-name="Trazado 603912" d="M4986.814,3373.7c1.741,2.992,4.15,5.048,7.372,5.048s5.625-2.057,7.366-5.048a20.747,20.747,0,0,0,2.639-9.672,9.968,9.968,0,0,0-4.821-8.552,20.31,20.31,0,0,1-14.774,5.68,10.02,10.02,0,0,0-.421,2.872A20.745,20.745,0,0,0,4986.814,3373.7Z" transform="translate(-4970.942 -3345.764)" fill="#fff"/>
        <path id="Trazado_603913" data-name="Trazado 603913" d="M5017,3435.588l1.448-.714q-1.32.344-2.662.585Z" transform="translate(-4986.233 -3384.167)" fill="#e6e6e6"/>
        <path id="Trazado_603914" data-name="Trazado 603914" d="M5004.856,3410.343c-.829-2.509-2.93-3.7-5.511-4.5-2.815-.88-5.864-1-7.914-1.78a3.007,3.007,0,0,1-1.622-1.628c-.02-.04-.036-.082-.054-.123h0a9.527,9.527,0,0,1-10.721.043c-.026.058-.055.114-.083.171a3.2,3.2,0,0,1-1.661,1.537c-2.048.776-5.1.9-7.91,1.779-2.582.807-4.683,2-5.513,4.5C4975.26,3420.083,4993.466,3420.083,5004.856,3410.343Z" transform="translate(-4961.122 -3368.416)" fill="#fff"/>
        <path id="Trazado_603915" data-name="Trazado 603915" d="M5005,3378.764c-.883-4.108-4.246-6.134-7.46-7.138s-6.614-1.291-7.767-1.728c-.021-.008-.063,0-.181-.265a3.908,3.908,0,0,1-.24-.948,15.853,15.853,0,0,0,2.034-2.782,21.625,21.625,0,0,0,1.729-3.824l.01.105s2.64-.629,3.206-4.21-1.446-4.462-1.446-4.462,1.384-4.588-.063-8.107-4.084-3.959-4.084-3.959a9.539,9.539,0,0,0-8.421-4.776c-6.1-.063-14.957,5.406-14.328,16.529,0,0-2.576.816-2.075,4.776.5,3.93,4.519,4.206,4.576,4.21.106.3.215.606.336.906l1.138,2.418a16.009,16.009,0,0,0,2.359,3.283,3.143,3.143,0,0,1-.243.8c-.121.233-.176.263-.278.3h0c-1.156.437-4.554.725-7.767,1.728a10.9,10.9,0,0,0-6.647,4.906,4.527,4.527,0,0,0-.841,2.444,1.293,1.293,0,0,0,.423,1.019,34.554,34.554,0,0,0,29.134,7.967q1.34-.24,2.662-.585a32.945,32.945,0,0,0,13.852-7.4A1.285,1.285,0,0,0,5005,3378.764Zm-38.194-4.673c2.813-.88,5.862-1,7.911-1.779a3.192,3.192,0,0,0,1.659-1.537c.029-.057.057-.113.083-.171a9.527,9.527,0,0,0,10.723-.043h0c.016.041.034.083.053.124a3.014,3.014,0,0,0,1.622,1.627c2.049.777,5.1.9,7.914,1.779,2.582.807,4.683,2,5.51,4.5-11.39,9.74-29.6,9.74-40.986,0C4962.124,3376.087,4964.227,3374.9,4966.807,3374.091Zm20.168-27.712a9.97,9.97,0,0,1,4.82,8.553,20.757,20.757,0,0,1-2.638,9.672c-1.739,2.991-4.148,5.048-7.366,5.048s-5.631-2.057-7.372-5.048a20.746,20.746,0,0,1-2.64-9.671,10.03,10.03,0,0,1,.422-2.873A20.306,20.306,0,0,0,4986.975,3346.379Z" transform="translate(-4958.546 -3336.668)" fill="#0b5999"/>
      </g>
      <path id="Trazado_603916" data-name="Trazado 603916" d="M4971.429,3376.2a34.3,34.3,0,1,1,34.3-34.3A34.34,34.34,0,0,1,4971.429,3376.2Zm0-66.868A32.568,32.568,0,1,0,5004,3341.9,32.605,32.605,0,0,0,4971.429,3309.327Z" transform="translate(-4937.128 -3307.594)" fill="#fecb2f"/>
    </g>
    <text id="_component_Email_Inbox" data-name="&lt;&lt;component&gt;&gt;
Email Inbox" transform="translate(308 8182)" fill="#db4d79" font-size="18" font-family="Roboto-Medium, Roboto" font-weight="500"><tspan x="0" y="19">&lt;&lt;component&gt;&gt;</tspan></text>
    <text id="_component_Email_Outbox" data-name="&lt;&lt;component&gt;&gt;
Email Outbox" transform="translate(308 8402)" fill="#db4d79" font-size="18" font-family="Roboto-Medium, Roboto" font-weight="500"><tspan x="0" y="19">&lt;&lt;component&gt;&gt;</tspan></text>
    <text id="_component_Email_Management" data-name="&lt;&lt;component&gt;&gt;
Email Management" transform="translate(1003 8292)" fill="#db4d79" font-size="18" font-family="Roboto-Medium, Roboto" font-weight="500"><tspan x="0" y="19">&lt;&lt;component&gt;&gt;</tspan></text>
    <text id="receive_email" data-name="receive email" transform="translate(739 8146)" font-size="18" font-family="Roboto-Medium, Roboto" font-weight="500"><tspan x="0" y="19">receive </tspan></text>
    <text id="Collect_mail" data-name="Collect mail" transform="translate(1321 8292)" font-size="18" font-family="Roboto-Medium, Roboto" font-weight="500"><tspan x="0" y="19">collect </tspan></text>
    <text id="Monitor_operation" data-name="Monitor operation" transform="translate(1082 8134)" font-size="18" font-family="Roboto-Medium, Roboto" font-weight="500"><tspan x="0" y="19">monitor </tspan></text>
    <text id="Use" transform="translate(1166 8188)" font-size="18" font-family="Roboto-Medium, Roboto" font-weight="500"><tspan x="25.159" y="19">Use</tspan></text>
    <text id="Send_email" data-name="Send email" transform="translate(739 8444)" font-size="18" font-family="Roboto-Medium, Roboto" font-weight="500"><tspan x="0" y="19">send </tspan></text>
    <text id="Service_ports" data-name="Service ports" transform="translate(896 8047)" font-size="18" font-family="Roboto-Medium, Roboto" font-weight="500"><tspan x="0" y="19">service ports</tspan></text>
    <text id="Management_port" data-name="Management port" transform="translate(1132 8243)" font-size="18" font-family="Roboto-Medium, Roboto" font-weight="500"><tspan x="0" y="19">management port</tspan></text>
  </g>
</svg>
