<svg xmlns="http://www.w3.org/2000/svg" xmlns:xlink="http://www.w3.org/1999/xlink" width="400" height="533" viewBox="0 0 400 533">
  <defs>
    <filter id="Rectángulo_296225" x="0" y="0" width="400" height="533" filterUnits="userSpaceOnUse">
      <feOffset dy="3" input="SourceAlpha"/>
      <feGaussianBlur stdDeviation="3" result="blur"/>
      <feFlood flood-opacity="0.161"/>
      <feComposite operator="in" in2="blur"/>
      <feComposite in="SourceGraphic"/>
    </filter>
  </defs>
  <g id="Grupo_882297" data-name="Grupo 882297" transform="translate(-209 -3915)">
    <g transform="matrix(1, 0, 0, 1, 209, 3915)" filter="url(#Rectángulo_296225)">
      <rect id="Rectángulo_296225-2" data-name="Rectángulo 296225" width="382" height="515" rx="39" transform="translate(9 6)" fill="#fff"/>
    </g>
    <path id="Trazado_604396" data-name="Trazado 604396" d="M6749.025-2737.688v-8.428c-.344.024-.69.04-1.043.04-.16,0-.318-.006-.477-.011v8.4a2.157,2.157,0,0,1-2.282,2H6452.061a2.158,2.158,0,0,1-2.282-2v-8.407c-.242.012-.485.019-.73.019-.266,0-.529-.01-.791-.023v8.412a3.6,3.6,0,0,0,3.8,3.333h293.163A3.6,3.6,0,0,0,6749.025-2737.688Z" transform="translate(-6192.091 6722.111)" fill="#21cbae"/>
    <path id="Trazado_604397" data-name="Trazado 604397" d="M6749.025-1536.932v-8.428c-.344.024-.69.039-1.043.039-.16,0-.318-.005-.477-.011v8.4a2.157,2.157,0,0,1-2.282,2H6452.061a2.157,2.157,0,0,1-2.282-2v-8.407c-.242.012-.485.019-.73.019-.266,0-.529-.009-.791-.023v8.411a3.6,3.6,0,0,0,3.8,3.333h293.163A3.594,3.594,0,0,0,6749.025-1536.932Z" transform="translate(-6192.091 5747.521)" fill="#21cbae"/>
    <g id="Grupo_880285" data-name="Grupo 880285" transform="translate(270.38 3941.799)">
      <path id="Trazado_604398" data-name="Trazado 604398" d="M6536.074-2892.529h-38.956a5.26,5.26,0,0,1-5.253-5.254v-24.63a5.26,5.26,0,0,1,5.253-5.254h38.956a5.259,5.259,0,0,1,5.253,5.254v24.63A5.259,5.259,0,0,1,6536.074-2892.529Zm-38.956-33.254a3.374,3.374,0,0,0-3.37,3.37v24.63a3.374,3.374,0,0,0,3.37,3.37h38.956a3.374,3.374,0,0,0,3.371-3.37v-24.63a3.374,3.374,0,0,0-3.371-3.37Z" transform="translate(-6491.865 2927.667)" fill="#fecb2f"/>
    </g>
    <g id="Grupo_880286" data-name="Grupo 880286" transform="translate(270.38 3964.288)">
      <path id="Trazado_604399" data-name="Trazado 604399" d="M6540.387-2806.387h-47.58a.942.942,0,0,1-.941-.941.942.942,0,0,1,.941-.942h47.58a.941.941,0,0,1,.941.942A.941.941,0,0,1,6540.387-2806.387Z" transform="translate(-6491.865 2808.27)" fill="#fecb2f"/>
    </g>
    <g id="Grupo_880287" data-name="Grupo 880287" transform="translate(270.38 3969.377)">
      <path id="Trazado_604400" data-name="Trazado 604400" d="M6540.387-2779.37h-47.58a.942.942,0,0,1-.941-.942.942.942,0,0,1,.941-.942h47.58a.941.941,0,0,1,.941.942A.941.941,0,0,1,6540.387-2779.37Z" transform="translate(-6491.865 2781.253)" fill="#fecb2f"/>
    </g>
    <g id="Grupo_880288" data-name="Grupo 880288" transform="translate(270.38 3996.455)">
      <path id="Trazado_604401" data-name="Trazado 604401" d="M6536.074-2602.347h-38.956a5.26,5.26,0,0,1-5.253-5.253v-24.63a5.26,5.26,0,0,1,5.253-5.254h38.956a5.259,5.259,0,0,1,5.253,5.254v24.63A5.259,5.259,0,0,1,6536.074-2602.347Zm-38.956-33.254a3.374,3.374,0,0,0-3.37,3.37v24.63a3.374,3.374,0,0,0,3.37,3.37h38.956a3.374,3.374,0,0,0,3.371-3.37v-24.63a3.374,3.374,0,0,0-3.371-3.37Z" transform="translate(-6491.865 2637.484)" fill="#fecb2f"/>
    </g>
    <g id="Grupo_880289" data-name="Grupo 880289" transform="translate(274.798 4001.216)">
      <path id="Trazado_604402" data-name="Trazado 604402" d="M6551.577-2586.034h-31.947a4.314,4.314,0,0,1-4.309-4.308V-2607.9a4.314,4.314,0,0,1,4.309-4.309h31.947a4.314,4.314,0,0,1,4.309,4.309v17.561A4.313,4.313,0,0,1,6551.577-2586.034Zm-31.947-24.633a2.767,2.767,0,0,0-2.764,2.764v17.561a2.767,2.767,0,0,0,2.764,2.764h31.947a2.767,2.767,0,0,0,2.764-2.764V-2607.9a2.767,2.767,0,0,0-2.764-2.764Z" transform="translate(-6515.321 2612.212)" fill="#fecb2f"/>
    </g>
    <g id="Grupo_880290" data-name="Grupo 880290" transform="translate(270.38 4039.804)">
      <path id="Trazado_604403" data-name="Trazado 604403" d="M6536.074-2372.2h-38.956a5.26,5.26,0,0,1-5.253-5.254v-24.63a5.26,5.26,0,0,1,5.253-5.254h38.956a5.259,5.259,0,0,1,5.253,5.254v24.63A5.259,5.259,0,0,1,6536.074-2372.2Zm-38.956-33.254a3.374,3.374,0,0,0-3.37,3.37v24.63a3.374,3.374,0,0,0,3.37,3.37h38.956a3.374,3.374,0,0,0,3.371-3.37v-24.63a3.374,3.374,0,0,0-3.371-3.37Z" transform="translate(-6491.865 2407.34)" fill="#fecb2f"/>
    </g>
    <g id="Grupo_880291" data-name="Grupo 880291" transform="translate(274.798 4044.564)">
      <path id="Trazado_604404" data-name="Trazado 604404" d="M6551.577-2355.889h-31.947a4.314,4.314,0,0,1-4.309-4.308v-17.561a4.314,4.314,0,0,1,4.309-4.309h31.947a4.314,4.314,0,0,1,4.309,4.309v17.561A4.313,4.313,0,0,1,6551.577-2355.889Zm-31.947-24.633a2.767,2.767,0,0,0-2.764,2.764v17.561a2.767,2.767,0,0,0,2.764,2.764h31.947a2.767,2.767,0,0,0,2.764-2.764v-17.561a2.767,2.767,0,0,0-2.764-2.764Z" transform="translate(-6515.321 2382.067)" fill="#fecb2f"/>
    </g>
    <g id="Grupo_880292" data-name="Grupo 880292" transform="translate(270.38 4083.152)">
      <path id="Trazado_604405" data-name="Trazado 604405" d="M6536.074-2142.057h-38.956a5.26,5.26,0,0,1-5.253-5.253v-24.63a5.26,5.26,0,0,1,5.253-5.254h38.956a5.259,5.259,0,0,1,5.253,5.254v24.63A5.259,5.259,0,0,1,6536.074-2142.057Zm-38.956-33.254a3.374,3.374,0,0,0-3.37,3.37v24.63a3.374,3.374,0,0,0,3.37,3.37h38.956a3.374,3.374,0,0,0,3.371-3.37v-24.63a3.374,3.374,0,0,0-3.371-3.37Z" transform="translate(-6491.865 2177.195)" fill="#fecb2f"/>
    </g>
    <g id="Grupo_880293" data-name="Grupo 880293" transform="translate(274.798 4087.912)">
      <path id="Trazado_604406" data-name="Trazado 604406" d="M6551.577-2125.745h-31.947a4.314,4.314,0,0,1-4.309-4.309v-17.56a4.314,4.314,0,0,1,4.309-4.309h31.947a4.313,4.313,0,0,1,4.309,4.309v17.56A4.313,4.313,0,0,1,6551.577-2125.745Zm-31.947-24.633a2.767,2.767,0,0,0-2.764,2.764v17.56a2.767,2.767,0,0,0,2.764,2.764h31.947a2.767,2.767,0,0,0,2.764-2.764v-17.56a2.767,2.767,0,0,0-2.764-2.764Z" transform="translate(-6515.321 2151.922)" fill="#fecb2f"/>
    </g>
    <g id="Grupo_880294" data-name="Grupo 880294" transform="translate(270.38 4124.617)">
      <path id="Trazado_604407" data-name="Trazado 604407" d="M6536.074-1921.919h-38.956a5.26,5.26,0,0,1-5.253-5.254v-24.63a5.26,5.26,0,0,1,5.253-5.254h38.956a5.259,5.259,0,0,1,5.253,5.254v24.63A5.259,5.259,0,0,1,6536.074-1921.919Zm-38.956-33.254a3.374,3.374,0,0,0-3.37,3.37v24.63a3.374,3.374,0,0,0,3.37,3.37h38.956a3.374,3.374,0,0,0,3.371-3.37v-24.63a3.374,3.374,0,0,0-3.371-3.37Z" transform="translate(-6491.865 1957.056)" fill="#fecb2f"/>
    </g>
    <g id="Grupo_880295" data-name="Grupo 880295" transform="translate(274.798 4129.377)">
      <path id="Trazado_604408" data-name="Trazado 604408" d="M6551.577-1905.606h-31.947a4.314,4.314,0,0,1-4.309-4.308v-17.561a4.314,4.314,0,0,1,4.309-4.309h31.947a4.313,4.313,0,0,1,4.309,4.309v17.561A4.313,4.313,0,0,1,6551.577-1905.606Zm-31.947-24.633a2.767,2.767,0,0,0-2.764,2.764v17.561a2.767,2.767,0,0,0,2.764,2.764h31.947a2.767,2.767,0,0,0,2.764-2.764v-17.561a2.767,2.767,0,0,0-2.764-2.764Z" transform="translate(-6515.321 1931.784)" fill="#fecb2f"/>
    </g>
    <g id="Grupo_880296" data-name="Grupo 880296" transform="translate(270.38 4167.965)">
      <path id="Trazado_604409" data-name="Trazado 604409" d="M6536.074-1691.774h-38.956a5.26,5.26,0,0,1-5.253-5.254v-24.63a5.26,5.26,0,0,1,5.253-5.254h38.956a5.259,5.259,0,0,1,5.253,5.254v24.63A5.259,5.259,0,0,1,6536.074-1691.774Zm-38.956-33.254a3.374,3.374,0,0,0-3.37,3.37v24.63a3.374,3.374,0,0,0,3.37,3.37h38.956a3.374,3.374,0,0,0,3.371-3.37v-24.63a3.374,3.374,0,0,0-3.371-3.37Z" transform="translate(-6491.865 1726.911)" fill="#fecb2f"/>
    </g>
    <g id="Grupo_880297" data-name="Grupo 880297" transform="translate(274.798 4172.725)">
      <path id="Trazado_604410" data-name="Trazado 604410" d="M6551.577-1675.462h-31.947a4.314,4.314,0,0,1-4.309-4.309v-17.56a4.314,4.314,0,0,1,4.309-4.308h31.947a4.313,4.313,0,0,1,4.309,4.308v17.56A4.313,4.313,0,0,1,6551.577-1675.462Zm-31.947-24.633a2.767,2.767,0,0,0-2.764,2.764v17.56a2.767,2.767,0,0,0,2.764,2.764h31.947a2.767,2.767,0,0,0,2.764-2.764v-17.56a2.767,2.767,0,0,0-2.764-2.764Z" transform="translate(-6515.321 1701.639)" fill="#fecb2f"/>
    </g>
    <g id="Grupo_880298" data-name="Grupo 880298" transform="translate(256.602 3994.643)">
      <path id="Trazado_604411" data-name="Trazado 604411" d="M6445.823-2451.062a.565.565,0,0,1-.565-.565v-194.92a.565.565,0,0,1,.565-.565.565.565,0,0,1,.565.565v194.92A.565.565,0,0,1,6445.823-2451.062Z" transform="translate(-6445.258 2647.112)" fill="#21cbae"/>
    </g>
    <g id="Grupo_880299" data-name="Grupo 880299" transform="translate(556.37 3994.643)">
      <path id="Trazado_604412" data-name="Trazado 604412" d="M7845.44-2451.062a.565.565,0,0,1-.565-.565v-194.92a.565.565,0,0,1,.565-.565.565.565,0,0,1,.565.565v194.92A.565.565,0,0,1,7845.44-2451.062Z" transform="translate(-7844.875 2647.112)" fill="#21cbae"/>
    </g>
    <path id="Trazado_604398-2" data-name="Trazado 604398" d="M6749.025-476.264v-8.428c-.344.024-.69.04-1.043.04-.16,0-.318-.006-.477-.011v8.4a2.157,2.157,0,0,1-2.282,2H6452.061a2.157,2.157,0,0,1-2.282-2v-8.407c-.242.011-.485.019-.73.019-.266,0-.529-.009-.791-.023v8.411a3.6,3.6,0,0,0,3.8,3.333h293.163A3.6,3.6,0,0,0,6749.025-476.264Z" transform="translate(-6192.091 4886.634)" fill="#21cbae"/>
    <g id="Grupo_880300" data-name="Grupo 880300" transform="translate(256.602 4220.809)">
      <path id="Trazado_604414" data-name="Trazado 604414" d="M6445.823-1276.691a.565.565,0,0,1-.565-.565v-168.534a.565.565,0,0,1,.565-.565.565.565,0,0,1,.565.565v168.534A.565.565,0,0,1,6445.823-1276.691Z" transform="translate(-6445.258 1446.356)" fill="#21cbae"/>
    </g>
    <g id="Grupo_880301" data-name="Grupo 880301" transform="translate(556.37 4220.81)">
      <path id="Trazado_604415" data-name="Trazado 604415" d="M7845.44-1276.691a.565.565,0,0,1-.565-.565v-168.534a.565.565,0,0,1,.565-.565.565.565,0,0,1,.565.565v168.534A.565.565,0,0,1,7845.44-1276.691Z" transform="translate(-7844.875 1446.356)" fill="#21cbae"/>
    </g>
    <g id="Grupo_880302" data-name="Grupo 880302" transform="translate(277.559 4229.992)">
      <g id="Grupo_880307" data-name="Grupo 880307" transform="translate(0 0)">
        <g id="Grupo_880306" data-name="Grupo 880306">
          <g id="Grupo_880305" data-name="Grupo 880305">
            <g id="Grupo_880304" data-name="Grupo 880304">
              <g id="Grupo_880303" data-name="Grupo 880303">
                <g id="Grupo_880302-2" data-name="Grupo 880302">
                  <path id="Trazado_604416" data-name="Trazado 604416" d="M6565.448-1376.656v-6.41h-4.087a13.947,13.947,0,0,0-1.731-4.181l2.889-2.889-4.532-4.533-2.888,2.889a13.946,13.946,0,0,0-4.182-1.731v-4.088h-6.41v4.088a13.92,13.92,0,0,0-4.176,1.731l-2.895-2.889-4.532,4.533,2.895,2.889a13.957,13.957,0,0,0-1.73,4.181h-4.088v6.41h4.088a13.922,13.922,0,0,0,1.73,4.175l-2.895,2.9,4.532,4.532,2.895-2.889a14.083,14.083,0,0,0,4.176,1.725v4.094h6.41v-4.094a14.109,14.109,0,0,0,4.182-1.725l2.888,2.889,4.532-4.532-2.889-2.9a13.912,13.912,0,0,0,1.731-4.175Zm-17.737,4.286a7.486,7.486,0,0,1-7.49-7.491,7.486,7.486,0,0,1,7.49-7.49,7.487,7.487,0,0,1,7.492,7.49A7.487,7.487,0,0,1,6547.71-1372.37Zm0-4.745a2.745,2.745,0,0,1-2.746-2.746,2.744,2.744,0,0,1,2.746-2.745,2.744,2.744,0,0,1,2.746,2.745A2.744,2.744,0,0,1,6547.71-1377.115Z" transform="translate(-6529.979 1397.598)" fill="#fecb2f"/>
                </g>
              </g>
            </g>
          </g>
        </g>
      </g>
    </g>
    <path id="Rectángulo_296226" data-name="Rectángulo 296226" d="M0,0H191.606a25.349,25.349,0,0,1,25.349,25.349v7.9a0,0,0,0,1,0,0H33.254A33.254,33.254,0,0,1,0,0V0A0,0,0,0,1,0,0Z" transform="translate(324.013 3997.397)" fill="#f6cc53" opacity="0.095"/>
    <path id="Rectángulo_296227" data-name="Rectángulo 296227" d="M0,0H191.606a25.349,25.349,0,0,1,25.349,25.349v7.9a0,0,0,0,1,0,0H33.254A33.254,33.254,0,0,1,0,0V0A0,0,0,0,1,0,0Z" transform="translate(324.013 3943.117)" fill="#f6cc53" opacity="0.095"/>
    <path id="Rectángulo_296228" data-name="Rectángulo 296228" d="M0,0H191.606a25.349,25.349,0,0,1,25.349,25.349v7.9a0,0,0,0,1,0,0H33.254A33.254,33.254,0,0,1,0,0V0A0,0,0,0,1,0,0Z" transform="translate(324.013 4040.746)" fill="#f6cc53" opacity="0.095"/>
    <path id="Rectángulo_296229" data-name="Rectángulo 296229" d="M0,0H191.606a25.349,25.349,0,0,1,25.349,25.349v7.9a0,0,0,0,1,0,0H33.254A33.254,33.254,0,0,1,0,0V0A0,0,0,0,1,0,0Z" transform="translate(324.013 4084.094)" fill="#f6cc53" opacity="0.095"/>
    <path id="Rectángulo_296230" data-name="Rectángulo 296230" d="M0,0H191.606a25.349,25.349,0,0,1,25.349,25.349v7.9a0,0,0,0,1,0,0H33.254A33.254,33.254,0,0,1,0,0V0A0,0,0,0,1,0,0Z" transform="translate(324.013 4125.559)" fill="#f6cc53" opacity="0.095"/>
    <path id="Rectángulo_296231" data-name="Rectángulo 296231" d="M0,0H191.606a25.349,25.349,0,0,1,25.349,25.349v7.9a0,0,0,0,1,0,0H33.254A33.254,33.254,0,0,1,0,0V0A0,0,0,0,1,0,0Z" transform="translate(324.013 4169.283)" fill="#f6cc53" opacity="0.095"/>
    <path id="Rectángulo_296232" data-name="Rectángulo 296232" d="M0,0H191.606a25.349,25.349,0,0,1,25.349,25.349v7.9a0,0,0,0,1,0,0H33.254A33.254,33.254,0,0,1,0,0V0A0,0,0,0,1,0,0Z" transform="translate(324.013 4231.103)" fill="#f6cc53" opacity="0.095"/>
    <g id="Grupo_880303-2" data-name="Grupo 880303" transform="translate(277.559 4273.34)">
      <g id="Grupo_880314" data-name="Grupo 880314" transform="translate(0 0)">
        <g id="Grupo_880313" data-name="Grupo 880313">
          <g id="Grupo_880312" data-name="Grupo 880312">
            <g id="Grupo_880311" data-name="Grupo 880311">
              <g id="Grupo_880310" data-name="Grupo 880310">
                <g id="Grupo_880309" data-name="Grupo 880309">
                  <path id="Trazado_604417" data-name="Trazado 604417" d="M6565.448-1146.512v-6.41h-4.087a13.948,13.948,0,0,0-1.731-4.181l2.889-2.889-4.532-4.533-2.888,2.889a13.94,13.94,0,0,0-4.182-1.731v-4.088h-6.41v4.088a13.914,13.914,0,0,0-4.176,1.731l-2.895-2.889-4.532,4.533,2.895,2.889a13.959,13.959,0,0,0-1.73,4.181h-4.088v6.41h4.088a13.924,13.924,0,0,0,1.73,4.175l-2.895,2.895,4.532,4.533,2.895-2.889a14.077,14.077,0,0,0,4.176,1.725v4.094h6.41v-4.094a14.1,14.1,0,0,0,4.182-1.725l2.888,2.889,4.532-4.533-2.889-2.895a13.914,13.914,0,0,0,1.731-4.175Zm-17.737,4.286a7.486,7.486,0,0,1-7.49-7.491,7.486,7.486,0,0,1,7.49-7.49,7.487,7.487,0,0,1,7.492,7.49A7.487,7.487,0,0,1,6547.71-1142.226Zm0-4.745a2.745,2.745,0,0,1-2.746-2.746,2.744,2.744,0,0,1,2.746-2.745,2.744,2.744,0,0,1,2.746,2.745A2.744,2.744,0,0,1,6547.71-1146.971Z" transform="translate(-6529.979 1167.454)" fill="#fecb2f"/>
                </g>
              </g>
            </g>
          </g>
        </g>
      </g>
    </g>
    <path id="Rectángulo_296233" data-name="Rectángulo 296233" d="M0,0H191.606a25.349,25.349,0,0,1,25.349,25.349v7.9a0,0,0,0,1,0,0H33.254A33.254,33.254,0,0,1,0,0V0A0,0,0,0,1,0,0Z" transform="translate(324.013 4274.451)" fill="#f6cc53" opacity="0.095"/>
    <g id="Grupo_880304-2" data-name="Grupo 880304" transform="translate(277.559 4318.574)">
      <g id="Grupo_880321" data-name="Grupo 880321" transform="translate(0 0)">
        <g id="Grupo_880320" data-name="Grupo 880320">
          <g id="Grupo_880319" data-name="Grupo 880319">
            <g id="Grupo_880318" data-name="Grupo 880318">
              <g id="Grupo_880317" data-name="Grupo 880317">
                <g id="Grupo_880316" data-name="Grupo 880316">
                  <path id="Trazado_604418" data-name="Trazado 604418" d="M6565.448-906.36v-6.41h-4.087a13.947,13.947,0,0,0-1.731-4.181l2.889-2.889-4.532-4.533-2.888,2.889a13.946,13.946,0,0,0-4.182-1.731V-927.3h-6.41v4.088a13.92,13.92,0,0,0-4.176,1.731l-2.895-2.889-4.532,4.533,2.895,2.889a13.957,13.957,0,0,0-1.73,4.181h-4.088v6.41h4.088a13.922,13.922,0,0,0,1.73,4.175l-2.895,2.9,4.532,4.532,2.895-2.889a14.072,14.072,0,0,0,4.176,1.725v4.094h6.41v-4.094a14.1,14.1,0,0,0,4.182-1.725l2.888,2.889,4.532-4.532-2.889-2.9a13.912,13.912,0,0,0,1.731-4.175Zm-17.737,4.286a7.486,7.486,0,0,1-7.49-7.491,7.486,7.486,0,0,1,7.49-7.49,7.487,7.487,0,0,1,7.492,7.49A7.487,7.487,0,0,1,6547.71-902.074Zm0-4.745a2.744,2.744,0,0,1-2.746-2.746,2.744,2.744,0,0,1,2.746-2.745,2.744,2.744,0,0,1,2.746,2.745A2.744,2.744,0,0,1,6547.71-906.819Z" transform="translate(-6529.979 927.302)" fill="#fecb2f"/>
                </g>
              </g>
            </g>
          </g>
        </g>
      </g>
    </g>
    <path id="Rectángulo_296234" data-name="Rectángulo 296234" d="M0,0H191.606a25.349,25.349,0,0,1,25.349,25.349v7.9a0,0,0,0,1,0,0H33.254A33.254,33.254,0,0,1,0,0V0A0,0,0,0,1,0,0Z" transform="translate(324.013 4319.684)" fill="#f6cc53" opacity="0.095"/>
    <g id="Grupo_880305-2" data-name="Grupo 880305" transform="translate(277.559 4361.922)">
      <g id="Grupo_880328" data-name="Grupo 880328" transform="translate(0 0)">
        <g id="Grupo_880327" data-name="Grupo 880327">
          <g id="Grupo_880326" data-name="Grupo 880326">
            <g id="Grupo_880325" data-name="Grupo 880325">
              <g id="Grupo_880324" data-name="Grupo 880324">
                <g id="Grupo_880323" data-name="Grupo 880323">
                  <path id="Trazado_604419" data-name="Trazado 604419" d="M6565.448-676.216v-6.41h-4.087a13.947,13.947,0,0,0-1.731-4.181l2.889-2.889-4.532-4.533-2.888,2.889a13.948,13.948,0,0,0-4.182-1.731v-4.088h-6.41v4.088a13.922,13.922,0,0,0-4.176,1.731l-2.895-2.889L6532.9-689.7l2.895,2.889a13.957,13.957,0,0,0-1.73,4.181h-4.088v6.41h4.088a13.923,13.923,0,0,0,1.73,4.175l-2.895,2.9,4.532,4.532,2.895-2.889a14.075,14.075,0,0,0,4.176,1.725v4.094h6.41v-4.094a14.1,14.1,0,0,0,4.182-1.725l2.888,2.889,4.532-4.532-2.889-2.9a13.912,13.912,0,0,0,1.731-4.175Zm-17.737,4.286a7.486,7.486,0,0,1-7.49-7.491,7.486,7.486,0,0,1,7.49-7.49,7.487,7.487,0,0,1,7.492,7.49A7.487,7.487,0,0,1,6547.71-671.93Zm0-4.745a2.745,2.745,0,0,1-2.746-2.746,2.744,2.744,0,0,1,2.746-2.746,2.744,2.744,0,0,1,2.746,2.746A2.744,2.744,0,0,1,6547.71-676.675Z" transform="translate(-6529.979 697.158)" fill="#fecb2f"/>
                </g>
              </g>
            </g>
          </g>
        </g>
      </g>
    </g>
    <path id="Rectángulo_296235" data-name="Rectángulo 296235" d="M0,0H191.606a25.349,25.349,0,0,1,25.349,25.349v7.9a0,0,0,0,1,0,0H33.254A33.254,33.254,0,0,1,0,0V0A0,0,0,0,1,0,0Z" transform="translate(324.013 4363.032)" fill="#f6cc53" opacity="0.095"/>
    <path id="Trazado_606426" data-name="Trazado 606426" d="M5.019,6.2l2.856,8.9,2.848-8.9h4.061V19H11.689V16.012l.3-6.117L8.895,19H6.855l-3.1-9.114.3,6.126V19H.967V6.2Zm11.215,7.954a5.613,5.613,0,0,1,.554-2.536,3.96,3.96,0,0,1,1.591-1.709,4.791,4.791,0,0,1,2.435-.6,4.373,4.373,0,0,1,3.366,1.323,5.076,5.076,0,0,1,1.23,3.6v.105a4.925,4.925,0,0,1-1.235,3.529,4.384,4.384,0,0,1-3.344,1.305,4.434,4.434,0,0,1-3.261-1.217,4.761,4.761,0,0,1-1.327-3.3Zm2.962.185a3.538,3.538,0,0,0,.413,1.934,1.376,1.376,0,0,0,1.222.615q1.582,0,1.617-2.435v-.3q0-2.558-1.635-2.558-1.485,0-1.608,2.206Zm16.348-.018a5.8,5.8,0,0,1-.967,3.595,3.238,3.238,0,0,1-2.725,1.257,2.81,2.81,0,0,1-2.338-1.151L29.391,19H26.736V5.5H29.7v4.755a2.711,2.711,0,0,1,2.136-.94,3.239,3.239,0,0,1,2.742,1.274,5.826,5.826,0,0,1,.967,3.586Zm-2.971-.189a3.866,3.866,0,0,0-.365-1.952,1.229,1.229,0,0,0-1.121-.584,1.418,1.418,0,0,0-1.389.763v3.773a1.426,1.426,0,0,0,1.406.755,1.258,1.258,0,0,0,1.327-1.018A7.309,7.309,0,0,0,32.572,14.135ZM39.973,19H37V9.49h2.971ZM36.826,7.038A1.322,1.322,0,0,1,37.283,6a1.943,1.943,0,0,1,2.373,0,1.322,1.322,0,0,1,.457,1.037,1.322,1.322,0,0,1-.457,1.037,1.943,1.943,0,0,1-2.373,0A1.322,1.322,0,0,1,36.826,7.038ZM44.921,19H41.95V5.5h2.971Zm4.948,0H46.9V9.49h2.971ZM46.723,7.038A1.322,1.322,0,0,1,47.18,6a1.943,1.943,0,0,1,2.373,0,1.322,1.322,0,0,1,.457,1.037,1.322,1.322,0,0,1-.457,1.037,1.943,1.943,0,0,1-2.373,0A1.322,1.322,0,0,1,46.723,7.038ZM57.05,19a3.344,3.344,0,0,1-.281-.853,2.754,2.754,0,0,1-2.285,1.028,3.374,3.374,0,0,1-2.285-.813,2.588,2.588,0,0,1-.94-2.043A2.66,2.66,0,0,1,52.4,13.981a5.821,5.821,0,0,1,3.322-.791h.914v-.5q0-1.316-1.134-1.316a.927.927,0,0,0-1.055,1.042H51.486a2.655,2.655,0,0,1,1.173-2.239,4.931,4.931,0,0,1,2.993-.86,4.323,4.323,0,0,1,2.874.888,3.086,3.086,0,0,1,1.081,2.435v4.21a4.311,4.311,0,0,0,.4,2V19ZM55.2,17.066a1.652,1.652,0,0,0,.918-.237,1.487,1.487,0,0,0,.523-.536V14.772h-.861q-1.547,0-1.547,1.389a.848.848,0,0,0,.272.655A.986.986,0,0,0,55.2,17.066Zm11.8-4.9-.976-.07a1.752,1.752,0,0,0-1.793.879V19H61.269V9.49h2.777l.1,1.222a2.294,2.294,0,0,1,2.083-1.4,2.888,2.888,0,0,1,.826.105ZM71.191,19H68.221V9.49h2.971ZM68.045,7.038A1.322,1.322,0,0,1,68.5,6a1.943,1.943,0,0,1,2.373,0,1.322,1.322,0,0,1,.457,1.037,1.322,1.322,0,0,1-.457,1.037,1.943,1.943,0,0,1-2.373,0A1.322,1.322,0,0,1,68.045,7.038Zm4.6,7.119a5.613,5.613,0,0,1,.554-2.536,3.96,3.96,0,0,1,1.591-1.709,4.791,4.791,0,0,1,2.435-.6,4.373,4.373,0,0,1,3.366,1.323,5.076,5.076,0,0,1,1.23,3.6v.105a4.925,4.925,0,0,1-1.235,3.529,4.384,4.384,0,0,1-3.344,1.305,4.434,4.434,0,0,1-3.261-1.217,4.761,4.761,0,0,1-1.327-3.3Zm2.962.185a3.538,3.538,0,0,0,.413,1.934,1.376,1.376,0,0,0,1.222.615q1.582,0,1.617-2.435v-.3q0-2.558-1.635-2.558-1.485,0-1.608,2.206Z" transform="translate(356 3948)" fill="#285894"/>
    <path id="Trazado_606427" data-name="Trazado 606427" d="M11.32,14.667a4.673,4.673,0,0,1-.721,2.36,4.35,4.35,0,0,1-1.85,1.586,6.3,6.3,0,0,1-2.72.563,5.025,5.025,0,0,1-3.973-1.644,6.786,6.786,0,0,1-1.45-4.641v-.633a7.746,7.746,0,0,1,.655-3.292,4.961,4.961,0,0,1,1.885-2.18,5.26,5.26,0,0,1,2.848-.769A5.516,5.516,0,0,1,9.738,7.245a4.844,4.844,0,0,1,1.608,3.379H8.271a2.292,2.292,0,0,0-.589-1.679,2.422,2.422,0,0,0-1.687-.51A1.843,1.843,0,0,0,4.307,9.3a5.536,5.536,0,0,0-.562,2.751v.905a6.125,6.125,0,0,0,.514,2.927,1.882,1.882,0,0,0,1.771.879,2.369,2.369,0,0,0,1.626-.5,2.126,2.126,0,0,0,.6-1.591Zm.949-.51a5.613,5.613,0,0,1,.554-2.536,3.96,3.96,0,0,1,1.591-1.709,4.791,4.791,0,0,1,2.435-.6,4.373,4.373,0,0,1,3.366,1.323,5.076,5.076,0,0,1,1.23,3.6v.105a4.925,4.925,0,0,1-1.235,3.529,4.384,4.384,0,0,1-3.344,1.305,4.434,4.434,0,0,1-3.261-1.217,4.761,4.761,0,0,1-1.327-3.3Zm2.962.185a3.538,3.538,0,0,0,.413,1.934,1.376,1.376,0,0,0,1.222.615q1.582,0,1.617-2.435v-.3q0-2.558-1.635-2.558-1.485,0-1.608,2.206Zm12.5,1.986a.684.684,0,0,0-.4-.606,6.016,6.016,0,0,0-1.5-.475A6.853,6.853,0,0,1,24,14.6a3.062,3.062,0,0,1-1.1-.971,2.319,2.319,0,0,1-.378-1.31,2.628,2.628,0,0,1,1.081-2.158,4.453,4.453,0,0,1,2.83-.848,4.934,4.934,0,0,1,3.023.853A2.666,2.666,0,0,1,30.6,12.408H27.633q0-1.143-1.2-1.143a1.194,1.194,0,0,0-.782.259.8.8,0,0,0-.316.646.737.737,0,0,0,.387.642,3.654,3.654,0,0,0,1.235.4,10.671,10.671,0,0,1,1.49.378,2.706,2.706,0,0,1,2.145,2.646,2.491,2.491,0,0,1-1.156,2.118,5.068,5.068,0,0,1-2.993.817,5.172,5.172,0,0,1-2.18-.439,3.645,3.645,0,0,1-1.494-1.2,2.707,2.707,0,0,1-.536-1.591H25a1.145,1.145,0,0,0,.439.962,1.808,1.808,0,0,0,1.081.3,1.422,1.422,0,0,0,.91-.246A.787.787,0,0,0,27.729,16.328Zm7.69-9.2V9.49h1.564v2.057H35.42V15.9a1.111,1.111,0,0,0,.193.747,1.037,1.037,0,0,0,.765.211,4.345,4.345,0,0,0,.738-.053v2.118a5.466,5.466,0,0,1-1.67.255,3.1,3.1,0,0,1-2.259-.721,2.954,2.954,0,0,1-.729-2.188v-4.72H31.245V9.49h1.213V7.126Zm2.092,7.031a5.613,5.613,0,0,1,.554-2.536,3.96,3.96,0,0,1,1.591-1.709,4.791,4.791,0,0,1,2.435-.6,4.373,4.373,0,0,1,3.366,1.323,5.076,5.076,0,0,1,1.23,3.6v.105a4.925,4.925,0,0,1-1.235,3.529,4.384,4.384,0,0,1-3.344,1.305,4.434,4.434,0,0,1-3.261-1.217,4.761,4.761,0,0,1-1.327-3.3Zm2.962.185a3.538,3.538,0,0,0,.413,1.934,1.376,1.376,0,0,0,1.222.615q1.582,0,1.617-2.435v-.3q0-2.558-1.635-2.558-1.485,0-1.608,2.206Z" transform="translate(356 4003)" fill="#285894"/>
    <path id="Trazado_606428" data-name="Trazado 606428" d="M.967,19V6.2H5.089a6.064,6.064,0,0,1,3.05.769,5.406,5.406,0,0,1,2.114,2.171,6.554,6.554,0,0,1,.769,3.142v.589a6.592,6.592,0,0,1-.743,3.151A5.429,5.429,0,0,1,8.187,18.2a5.93,5.93,0,0,1-3.01.8ZM4.052,8.585v8.042H5.124a2.4,2.4,0,0,0,2.039-.945,4.63,4.63,0,0,0,.712-2.808V12.32a4.592,4.592,0,0,0-.712-2.795,2.442,2.442,0,0,0-2.074-.94ZM15.592,19H12.621V9.49h2.971ZM12.445,7.038A1.322,1.322,0,0,1,12.9,6a1.724,1.724,0,0,1,1.187-.4,1.724,1.724,0,0,1,1.187.4,1.322,1.322,0,0,1,.457,1.037,1.322,1.322,0,0,1-.457,1.037,1.724,1.724,0,0,1-1.187.4,1.724,1.724,0,0,1-1.187-.4A1.322,1.322,0,0,1,12.445,7.038Zm7.77,2.452.1,1.116a3.27,3.27,0,0,1,2.716-1.292,2.407,2.407,0,0,1,2.435,1.433,3.165,3.165,0,0,1,2.795-1.433q2.892,0,2.971,3.5V19H28.257V13a1.813,1.813,0,0,0-.246-1.063,1.048,1.048,0,0,0-.9-.334,1.4,1.4,0,0,0-1.31.782l.009.123V19H22.843V13.015a1.906,1.906,0,0,0-.237-1.081A1.045,1.045,0,0,0,21.7,11.6a1.42,1.42,0,0,0-1.3.782V19H17.438V9.49Zm17.306,9.686a4.889,4.889,0,0,1-3.542-1.305,4.507,4.507,0,0,1-1.354-3.4v-.246a5.84,5.84,0,0,1,.541-2.575,3.955,3.955,0,0,1,1.578-1.727A4.763,4.763,0,0,1,37.2,9.314a4.117,4.117,0,0,1,3.164,1.244,4.887,4.887,0,0,1,1.16,3.467v1.151H35.64a2.135,2.135,0,0,0,.694,1.257,2.066,2.066,0,0,0,1.389.457,2.662,2.662,0,0,0,2.2-.984l1.354,1.6A3.784,3.784,0,0,1,39.7,18.723,5.3,5.3,0,0,1,37.521,19.176ZM37.187,11.6q-1.3,0-1.547,1.723h2.988v-.229a1.467,1.467,0,0,0-.36-1.1A1.434,1.434,0,0,0,37.187,11.6ZM45.439,9.49l.1,1.116a3.225,3.225,0,0,1,2.716-1.292,2.713,2.713,0,0,1,2.219.888,4.226,4.226,0,0,1,.76,2.672V19H48.261V13a1.6,1.6,0,0,0-.29-1.059,1.342,1.342,0,0,0-1.055-.338,1.413,1.413,0,0,0-1.292.686V19H42.662V9.49Zm12.41,6.838a.684.684,0,0,0-.4-.606,6.016,6.016,0,0,0-1.5-.475,6.853,6.853,0,0,1-1.828-.646,3.062,3.062,0,0,1-1.1-.971,2.319,2.319,0,0,1-.378-1.31,2.628,2.628,0,0,1,1.081-2.158,4.453,4.453,0,0,1,2.83-.848,4.934,4.934,0,0,1,3.023.853,2.666,2.666,0,0,1,1.143,2.241H57.753q0-1.143-1.2-1.143a1.194,1.194,0,0,0-.782.259.8.8,0,0,0-.316.646.737.737,0,0,0,.387.642,3.654,3.654,0,0,0,1.235.4,10.671,10.671,0,0,1,1.49.378,2.706,2.706,0,0,1,2.145,2.646,2.491,2.491,0,0,1-1.156,2.118,5.068,5.068,0,0,1-2.993.817,5.172,5.172,0,0,1-2.18-.439,3.645,3.645,0,0,1-1.494-1.2,2.707,2.707,0,0,1-.536-1.591h2.769a1.145,1.145,0,0,0,.439.962,1.808,1.808,0,0,0,1.081.3,1.422,1.422,0,0,0,.91-.246A.787.787,0,0,0,57.85,16.328ZM65.215,19H62.244V9.49h2.971ZM62.068,7.038A1.322,1.322,0,0,1,62.525,6,1.943,1.943,0,0,1,64.9,6a1.322,1.322,0,0,1,.457,1.037A1.322,1.322,0,0,1,64.9,8.075a1.943,1.943,0,0,1-2.373,0A1.322,1.322,0,0,1,62.068,7.038Zm4.6,7.119a5.613,5.613,0,0,1,.554-2.536A3.96,3.96,0,0,1,68.81,9.912a4.791,4.791,0,0,1,2.435-.6,4.373,4.373,0,0,1,3.366,1.323,5.076,5.076,0,0,1,1.23,3.6v.105a4.925,4.925,0,0,1-1.235,3.529,4.384,4.384,0,0,1-3.344,1.305A4.434,4.434,0,0,1,68,17.958a4.761,4.761,0,0,1-1.327-3.3Zm2.962.185a3.538,3.538,0,0,0,.413,1.934,1.376,1.376,0,0,0,1.222.615q1.582,0,1.617-2.435v-.3q0-2.558-1.635-2.558-1.485,0-1.608,2.206ZM79.866,9.49l.1,1.116a3.225,3.225,0,0,1,2.716-1.292A2.713,2.713,0,0,1,84.9,10.2a4.226,4.226,0,0,1,.76,2.672V19H82.688V13a1.6,1.6,0,0,0-.29-1.059,1.342,1.342,0,0,0-1.055-.338,1.413,1.413,0,0,0-1.292.686V19H77.089V9.49ZM91.9,19.176a4.889,4.889,0,0,1-3.542-1.305A4.507,4.507,0,0,1,87,14.474v-.246a5.84,5.84,0,0,1,.541-2.575,3.955,3.955,0,0,1,1.578-1.727,4.763,4.763,0,0,1,2.461-.611,4.117,4.117,0,0,1,3.164,1.244,4.887,4.887,0,0,1,1.16,3.467v1.151H90.018a2.135,2.135,0,0,0,.694,1.257,2.066,2.066,0,0,0,1.389.457,2.662,2.662,0,0,0,2.2-.984l1.354,1.6a3.784,3.784,0,0,1-1.569,1.217A5.3,5.3,0,0,1,91.9,19.176ZM91.564,11.6q-1.3,0-1.547,1.723h2.988v-.229a1.467,1.467,0,0,0-.36-1.1A1.434,1.434,0,0,0,91.564,11.6Zm10.512,4.729a.684.684,0,0,0-.4-.606,6.016,6.016,0,0,0-1.5-.475A6.853,6.853,0,0,1,98.35,14.6a3.062,3.062,0,0,1-1.1-.971,2.319,2.319,0,0,1-.378-1.31,2.628,2.628,0,0,1,1.081-2.158,4.453,4.453,0,0,1,2.83-.848,4.934,4.934,0,0,1,3.023.853,2.666,2.666,0,0,1,1.143,2.241h-2.971q0-1.143-1.2-1.143a1.194,1.194,0,0,0-.782.259.8.8,0,0,0-.316.646.737.737,0,0,0,.387.642,3.654,3.654,0,0,0,1.235.4,10.671,10.671,0,0,1,1.49.378,2.706,2.706,0,0,1,2.145,2.646,2.491,2.491,0,0,1-1.156,2.118,5.068,5.068,0,0,1-2.993.817,5.172,5.172,0,0,1-2.18-.439,3.645,3.645,0,0,1-1.494-1.2,2.707,2.707,0,0,1-.536-1.591h2.769a1.145,1.145,0,0,0,.439.962,1.808,1.808,0,0,0,1.081.3,1.422,1.422,0,0,0,.91-.246A.787.787,0,0,0,102.076,16.328Z" transform="translate(356 4047)" fill="#285894"/>
    <path id="Trazado_606429" data-name="Trazado 606429" d="M4.052,14.658V19H.967V6.2H6.073a5.948,5.948,0,0,1,2.6.541,4.074,4.074,0,0,1,1.749,1.538,4.2,4.2,0,0,1,.62,2.263A3.7,3.7,0,0,1,9.7,13.538a5.561,5.561,0,0,1-3.678,1.121Zm0-2.382H6.073a1.906,1.906,0,0,0,1.367-.448,1.665,1.665,0,0,0,.47-1.266A2.059,2.059,0,0,0,7.427,9.13a1.712,1.712,0,0,0-1.318-.545H4.052Zm13.1,6.9a4.889,4.889,0,0,1-3.542-1.305,4.507,4.507,0,0,1-1.354-3.4v-.246a5.84,5.84,0,0,1,.541-2.575A3.955,3.955,0,0,1,14.37,9.925a4.763,4.763,0,0,1,2.461-.611A4.117,4.117,0,0,1,20,10.558a4.887,4.887,0,0,1,1.16,3.467v1.151H15.267a2.135,2.135,0,0,0,.694,1.257,2.066,2.066,0,0,0,1.389.457,2.662,2.662,0,0,0,2.2-.984l1.354,1.6a3.784,3.784,0,0,1-1.569,1.217A5.3,5.3,0,0,1,17.147,19.176ZM16.813,11.6q-1.3,0-1.547,1.723h2.988v-.229a1.467,1.467,0,0,0-.36-1.1A1.434,1.434,0,0,0,16.813,11.6Zm10.512,4.729a.684.684,0,0,0-.4-.606,6.016,6.016,0,0,0-1.5-.475A6.853,6.853,0,0,1,23.6,14.6a3.062,3.062,0,0,1-1.1-.971,2.319,2.319,0,0,1-.378-1.31A2.628,2.628,0,0,1,23.2,10.163a4.453,4.453,0,0,1,2.83-.848,4.934,4.934,0,0,1,3.023.853A2.666,2.666,0,0,1,30.2,12.408H27.229q0-1.143-1.2-1.143a1.194,1.194,0,0,0-.782.259.8.8,0,0,0-.316.646.737.737,0,0,0,.387.642,3.654,3.654,0,0,0,1.235.4,10.671,10.671,0,0,1,1.49.378,2.706,2.706,0,0,1,2.145,2.646,2.491,2.491,0,0,1-1.156,2.118,5.068,5.068,0,0,1-2.993.817,5.172,5.172,0,0,1-2.18-.439,3.645,3.645,0,0,1-1.494-1.2,2.707,2.707,0,0,1-.536-1.591h2.769a1.145,1.145,0,0,0,.439.962,1.808,1.808,0,0,0,1.081.3,1.422,1.422,0,0,0,.91-.246A.787.787,0,0,0,27.325,16.328Zm3.867-2.171a5.613,5.613,0,0,1,.554-2.536,3.96,3.96,0,0,1,1.591-1.709,4.791,4.791,0,0,1,2.435-.6,4.373,4.373,0,0,1,3.366,1.323,5.076,5.076,0,0,1,1.23,3.6v.105a4.925,4.925,0,0,1-1.235,3.529,4.384,4.384,0,0,1-3.344,1.305,4.434,4.434,0,0,1-3.261-1.217,4.761,4.761,0,0,1-1.327-3.3Zm2.962.185a3.538,3.538,0,0,0,.413,1.934,1.376,1.376,0,0,0,1.222.615q1.582,0,1.617-2.435v-.3q0-2.558-1.635-2.558-1.485,0-1.608,2.206Z" transform="translate(356 4090)" fill="#285894"/>
    <path id="Trazado_606430" data-name="Trazado 606430" d="M4.052,16.627h5.37V19H.967V6.2H4.052Zm6.161-2.47a5.613,5.613,0,0,1,.554-2.536,3.96,3.96,0,0,1,1.591-1.709,4.791,4.791,0,0,1,2.435-.6,4.373,4.373,0,0,1,3.366,1.323,5.076,5.076,0,0,1,1.23,3.6v.105a4.925,4.925,0,0,1-1.235,3.529,4.384,4.384,0,0,1-3.344,1.305,4.434,4.434,0,0,1-3.261-1.217,4.761,4.761,0,0,1-1.327-3.3Zm2.962.185a3.538,3.538,0,0,0,.413,1.934,1.376,1.376,0,0,0,1.222.615q1.582,0,1.617-2.435v-.3q0-2.558-1.635-2.558-1.485,0-1.608,2.206Zm11.54,2.549a1.317,1.317,0,0,0,.967-.338,1.241,1.241,0,0,0,.334-.945h2.777a3.288,3.288,0,0,1-1.121,2.566,4.168,4.168,0,0,1-2.887,1,4.22,4.22,0,0,1-3.27-1.3,5.125,5.125,0,0,1-1.2-3.6v-.123a5.792,5.792,0,0,1,.532-2.544,3.872,3.872,0,0,1,1.534-1.7,4.573,4.573,0,0,1,2.373-.593A4.116,4.116,0,0,1,27.7,10.343a3.647,3.647,0,0,1,1.09,2.786H26.016A1.626,1.626,0,0,0,25.655,12a1.244,1.244,0,0,0-.967-.4q-1.151,0-1.345,1.468a10.357,10.357,0,0,0-.062,1.283,4.068,4.068,0,0,0,.343,1.986A1.187,1.187,0,0,0,24.715,16.891ZM35.4,19a3.344,3.344,0,0,1-.281-.853,2.754,2.754,0,0,1-2.285,1.028,3.374,3.374,0,0,1-2.285-.813,2.588,2.588,0,0,1-.94-2.043,2.66,2.66,0,0,1,1.143-2.338,5.821,5.821,0,0,1,3.322-.791h.914v-.5q0-1.316-1.134-1.316A.927.927,0,0,0,32.8,12.413H29.839a2.655,2.655,0,0,1,1.173-2.239A4.931,4.931,0,0,1,34,9.314a4.323,4.323,0,0,1,2.874.888,3.086,3.086,0,0,1,1.081,2.435v4.21a4.311,4.311,0,0,0,.4,2V19Zm-1.854-1.934a1.652,1.652,0,0,0,.918-.237,1.487,1.487,0,0,0,.523-.536V14.772h-.861q-1.547,0-1.547,1.389a.848.848,0,0,0,.272.655A.986.986,0,0,0,33.548,17.066ZM42.724,19H39.753V5.5h2.971Zm4.948,0H44.7V9.49h2.971ZM44.525,7.038A1.322,1.322,0,0,1,44.982,6a1.943,1.943,0,0,1,2.373,0,1.322,1.322,0,0,1,.457,1.037,1.322,1.322,0,0,1-.457,1.037,1.943,1.943,0,0,1-2.373,0A1.322,1.322,0,0,1,44.525,7.038Zm8.464,9.677h4.333V19H49.245V17.348l4.219-5.572H49.43V9.49h7.8v1.6ZM64.116,19a3.344,3.344,0,0,1-.281-.853,2.754,2.754,0,0,1-2.285,1.028,3.374,3.374,0,0,1-2.285-.813,2.588,2.588,0,0,1-.94-2.043,2.66,2.66,0,0,1,1.143-2.338,5.821,5.821,0,0,1,3.322-.791H63.7v-.5q0-1.316-1.134-1.316a.927.927,0,0,0-1.055,1.042H58.553a2.655,2.655,0,0,1,1.173-2.239,4.931,4.931,0,0,1,2.993-.86,4.323,4.323,0,0,1,2.874.888,3.086,3.086,0,0,1,1.081,2.435v4.21a4.311,4.311,0,0,0,.4,2V19Zm-1.854-1.934a1.652,1.652,0,0,0,.918-.237,1.487,1.487,0,0,0,.523-.536V14.772h-.861q-1.547,0-1.547,1.389a.848.848,0,0,0,.272.655A.986.986,0,0,0,62.262,17.066Zm10.072-.176a1.317,1.317,0,0,0,.967-.338,1.241,1.241,0,0,0,.334-.945h2.777a3.288,3.288,0,0,1-1.121,2.566,4.168,4.168,0,0,1-2.887,1,4.22,4.22,0,0,1-3.27-1.3,5.125,5.125,0,0,1-1.2-3.6v-.123a5.792,5.792,0,0,1,.532-2.544A3.872,3.872,0,0,1,70,9.908a4.573,4.573,0,0,1,2.373-.593,4.116,4.116,0,0,1,2.944,1.028,3.647,3.647,0,0,1,1.09,2.786H73.635A1.626,1.626,0,0,0,73.274,12a1.244,1.244,0,0,0-.967-.4q-1.151,0-1.345,1.468a10.357,10.357,0,0,0-.062,1.283,4.068,4.068,0,0,0,.343,1.986A1.187,1.187,0,0,0,72.334,16.891ZM80.789,19H77.818V9.49h2.971ZM77.643,7.038A1.322,1.322,0,0,1,78.1,6a1.943,1.943,0,0,1,2.373,0,1.322,1.322,0,0,1,.457,1.037,1.322,1.322,0,0,1-.457,1.037,1.943,1.943,0,0,1-2.373,0A1.322,1.322,0,0,1,77.643,7.038Zm4.6,7.119a5.613,5.613,0,0,1,.554-2.536,3.96,3.96,0,0,1,1.591-1.709,4.791,4.791,0,0,1,2.435-.6,4.373,4.373,0,0,1,3.366,1.323,5.076,5.076,0,0,1,1.23,3.6v.105a4.925,4.925,0,0,1-1.235,3.529,4.384,4.384,0,0,1-3.344,1.305,4.434,4.434,0,0,1-3.261-1.217,4.761,4.761,0,0,1-1.327-3.3Zm2.962.185a3.538,3.538,0,0,0,.413,1.934,1.376,1.376,0,0,0,1.222.615q1.582,0,1.617-2.435v-.3q0-2.558-1.635-2.558-1.485,0-1.608,2.206ZM87.223,5.5h3.129L87.908,8.26l-2.417,0ZM95.44,9.49l.1,1.116a3.225,3.225,0,0,1,2.716-1.292,2.713,2.713,0,0,1,2.219.888,4.226,4.226,0,0,1,.76,2.672V19H98.262V13a1.6,1.6,0,0,0-.29-1.059,1.342,1.342,0,0,0-1.055-.338,1.413,1.413,0,0,0-1.292.686V19H92.663V9.49Z" transform="translate(356 4131)" fill="#285894"/>
    <path id="Trazado_606431" data-name="Trazado 606431" d="M11.32,14.667a4.673,4.673,0,0,1-.721,2.36,4.35,4.35,0,0,1-1.85,1.586,6.3,6.3,0,0,1-2.72.563,5.025,5.025,0,0,1-3.973-1.644,6.786,6.786,0,0,1-1.45-4.641v-.633a7.746,7.746,0,0,1,.655-3.292,4.961,4.961,0,0,1,1.885-2.18,5.26,5.26,0,0,1,2.848-.769A5.516,5.516,0,0,1,9.738,7.245a4.844,4.844,0,0,1,1.608,3.379H8.271a2.292,2.292,0,0,0-.589-1.679,2.422,2.422,0,0,0-1.687-.51A1.843,1.843,0,0,0,4.307,9.3a5.536,5.536,0,0,0-.562,2.751v.905a6.125,6.125,0,0,0,.514,2.927,1.882,1.882,0,0,0,1.771.879,2.369,2.369,0,0,0,1.626-.5,2.126,2.126,0,0,0,.6-1.591Zm.949-.51a5.613,5.613,0,0,1,.554-2.536,3.96,3.96,0,0,1,1.591-1.709,4.791,4.791,0,0,1,2.435-.6,4.373,4.373,0,0,1,3.366,1.323,5.076,5.076,0,0,1,1.23,3.6v.105a4.925,4.925,0,0,1-1.235,3.529,4.384,4.384,0,0,1-3.344,1.305,4.434,4.434,0,0,1-3.261-1.217,4.761,4.761,0,0,1-1.327-3.3Zm2.962.185a3.538,3.538,0,0,0,.413,1.934,1.376,1.376,0,0,0,1.222.615q1.582,0,1.617-2.435v-.3q0-2.558-1.635-2.558-1.485,0-1.608,2.206ZM25.875,19H22.9V5.5h2.971Zm1.45-4.843a5.613,5.613,0,0,1,.554-2.536A3.96,3.96,0,0,1,29.47,9.912a4.791,4.791,0,0,1,2.435-.6,4.373,4.373,0,0,1,3.366,1.323,5.076,5.076,0,0,1,1.23,3.6v.105a4.925,4.925,0,0,1-1.235,3.529,4.384,4.384,0,0,1-3.344,1.305,4.434,4.434,0,0,1-3.261-1.217,4.761,4.761,0,0,1-1.327-3.3Zm2.962.185a3.538,3.538,0,0,0,.413,1.934,1.376,1.376,0,0,0,1.222.615q1.582,0,1.617-2.435v-.3q0-2.558-1.635-2.558-1.485,0-1.608,2.206Zm13.271-2.171-.976-.07a1.752,1.752,0,0,0-1.793.879V19H37.828V9.49h2.777l.1,1.222a2.294,2.294,0,0,1,2.083-1.4,2.888,2.888,0,0,1,.826.105Z" transform="translate(356 4175)" fill="#285894"/>
    <path id="Trazado_606432" data-name="Trazado 606432" d="M11.32,14.667a4.673,4.673,0,0,1-.721,2.36,4.35,4.35,0,0,1-1.85,1.586,6.3,6.3,0,0,1-2.72.563,5.025,5.025,0,0,1-3.973-1.644,6.786,6.786,0,0,1-1.45-4.641v-.633a7.746,7.746,0,0,1,.655-3.292,4.961,4.961,0,0,1,1.885-2.18,5.26,5.26,0,0,1,2.848-.769A5.516,5.516,0,0,1,9.738,7.245a4.844,4.844,0,0,1,1.608,3.379H8.271a2.292,2.292,0,0,0-.589-1.679,2.422,2.422,0,0,0-1.687-.51A1.843,1.843,0,0,0,4.307,9.3a5.536,5.536,0,0,0-.562,2.751v.905a6.125,6.125,0,0,0,.514,2.927,1.882,1.882,0,0,0,1.771.879,2.369,2.369,0,0,0,1.626-.5,2.126,2.126,0,0,0,.6-1.591Zm.949-.51a5.613,5.613,0,0,1,.554-2.536,3.96,3.96,0,0,1,1.591-1.709,4.791,4.791,0,0,1,2.435-.6,4.373,4.373,0,0,1,3.366,1.323,5.076,5.076,0,0,1,1.23,3.6v.105a4.925,4.925,0,0,1-1.235,3.529,4.384,4.384,0,0,1-3.344,1.305,4.434,4.434,0,0,1-3.261-1.217,4.761,4.761,0,0,1-1.327-3.3Zm2.962.185a3.538,3.538,0,0,0,.413,1.934,1.376,1.376,0,0,0,1.222.615q1.582,0,1.617-2.435v-.3q0-2.558-1.635-2.558-1.485,0-1.608,2.206ZM25.55,9.49l.1,1.116a3.27,3.27,0,0,1,2.716-1.292A2.407,2.407,0,0,1,30.8,10.747a3.165,3.165,0,0,1,2.795-1.433q2.892,0,2.971,3.5V19H33.592V13a1.813,1.813,0,0,0-.246-1.063,1.048,1.048,0,0,0-.9-.334,1.4,1.4,0,0,0-1.31.782l.009.123V19H28.178V13.015a1.906,1.906,0,0,0-.237-1.081,1.045,1.045,0,0,0-.905-.334,1.42,1.42,0,0,0-1.3.782V19H22.772V9.49Zm21.533,4.825a5.735,5.735,0,0,1-1,3.538,3.2,3.2,0,0,1-2.694,1.323,2.742,2.742,0,0,1-2.153-.958v4.438H38.276V9.49h2.769l.088.879a2.742,2.742,0,0,1,2.241-1.055,3.224,3.224,0,0,1,2.733,1.3,5.805,5.805,0,0,1,.976,3.564Zm-2.962-.185q0-2.531-1.477-2.531a1.394,1.394,0,0,0-1.406.756V16.1a1.439,1.439,0,0,0,1.424.791q1.415,0,1.459-2.443Zm10.02-1.96-.976-.07a1.752,1.752,0,0,0-1.793.879V19H48.41V9.49h2.777l.1,1.222a2.294,2.294,0,0,1,2.083-1.4,2.888,2.888,0,0,1,.826.105ZM60.3,19a3.344,3.344,0,0,1-.281-.853,2.754,2.754,0,0,1-2.285,1.028,3.374,3.374,0,0,1-2.285-.813,2.588,2.588,0,0,1-.94-2.043,2.66,2.66,0,0,1,1.143-2.338,5.821,5.821,0,0,1,3.322-.791h.914v-.5q0-1.316-1.134-1.316A.927.927,0,0,0,57.7,12.413H54.738a2.655,2.655,0,0,1,1.173-2.239,4.931,4.931,0,0,1,2.993-.86,4.323,4.323,0,0,1,2.874.888,3.086,3.086,0,0,1,1.081,2.435v4.21a4.311,4.311,0,0,0,.4,2V19Zm-1.854-1.934a1.652,1.652,0,0,0,.918-.237,1.487,1.487,0,0,0,.523-.536V14.772h-.861q-1.547,0-1.547,1.389a.848.848,0,0,0,.272.655A.986.986,0,0,0,58.447,17.066Zm11.8-4.9-.976-.07a1.752,1.752,0,0,0-1.793.879V19H64.521V9.49H67.3l.1,1.222a2.294,2.294,0,0,1,2.083-1.4,2.888,2.888,0,0,1,.826.105ZM71.543,13.8a13.431,13.431,0,0,1,.571-3.99,9.629,9.629,0,0,1,1.578-3.129,5.6,5.6,0,0,1,2.237-1.793l.563,1.459a5.73,5.73,0,0,0-1.9,2.826,13.782,13.782,0,0,0-.681,4.5v.387a14.051,14.051,0,0,0,.672,4.588A5.706,5.706,0,0,0,76.491,21.5l-.562,1.459a5.547,5.547,0,0,1-2.237-1.8,9.484,9.484,0,0,1-1.578-3.116,13.5,13.5,0,0,1-.571-3.85Zm15.284.246a12.532,12.532,0,0,1-.606,3.92,10.008,10.008,0,0,1-1.674,3.186,5.574,5.574,0,0,1-2.307,1.806L81.677,21.5a5.787,5.787,0,0,0,1.89-2.812,13.577,13.577,0,0,0,.694-4.368v-.536a14.051,14.051,0,0,0-.672-4.588,5.706,5.706,0,0,0-1.912-2.848l.563-1.459a5.676,5.676,0,0,1,2.29,1.789A9.885,9.885,0,0,1,86.2,9.811a12.426,12.426,0,0,1,.628,3.845Z" transform="translate(356 4236)" fill="#285894"/>
    <path id="Trazado_606433" data-name="Trazado 606433" d="M5.933,15.52,8.481,6.2h3.445L7.62,19H4.245L-.026,6.2H3.393Zm11.391,3.656a4.889,4.889,0,0,1-3.542-1.305,4.507,4.507,0,0,1-1.354-3.4v-.246a5.84,5.84,0,0,1,.541-2.575,3.955,3.955,0,0,1,1.578-1.727,4.763,4.763,0,0,1,2.461-.611,4.117,4.117,0,0,1,3.164,1.244,4.887,4.887,0,0,1,1.16,3.467v1.151H15.442a2.135,2.135,0,0,0,.694,1.257,2.066,2.066,0,0,0,1.389.457,2.662,2.662,0,0,0,2.2-.984l1.354,1.6a3.784,3.784,0,0,1-1.569,1.217A5.3,5.3,0,0,1,17.323,19.176ZM16.989,11.6q-1.3,0-1.547,1.723h2.988v-.229a1.467,1.467,0,0,0-.36-1.1A1.434,1.434,0,0,0,16.989,11.6ZM25.242,9.49l.1,1.116a3.225,3.225,0,0,1,2.716-1.292,2.713,2.713,0,0,1,2.219.888,4.226,4.226,0,0,1,.76,2.672V19H28.063V13a1.6,1.6,0,0,0-.29-1.059,1.342,1.342,0,0,0-1.055-.338,1.413,1.413,0,0,0-1.292.686V19H22.465V9.49ZM32.3,14.175a5.809,5.809,0,0,1,.976-3.56A3.211,3.211,0,0,1,36,9.314a2.731,2.731,0,0,1,2.145,1V5.5h2.971V19H38.452L38.3,17.98a2.8,2.8,0,0,1-2.32,1.2,3.205,3.205,0,0,1-2.689-1.3A5.993,5.993,0,0,1,32.3,14.175Zm2.962.185q0,2.531,1.477,2.531a1.458,1.458,0,0,0,1.406-.826V12.443a1.419,1.419,0,0,0-1.389-.844q-1.371,0-1.485,2.215ZM47.4,19.176a4.889,4.889,0,0,1-3.542-1.305,4.507,4.507,0,0,1-1.354-3.4v-.246a5.84,5.84,0,0,1,.541-2.575,3.955,3.955,0,0,1,1.578-1.727,4.763,4.763,0,0,1,2.461-.611,4.117,4.117,0,0,1,3.164,1.244,4.887,4.887,0,0,1,1.16,3.467v1.151H45.519a2.135,2.135,0,0,0,.694,1.257,2.066,2.066,0,0,0,1.389.457,2.662,2.662,0,0,0,2.2-.984l1.354,1.6a3.784,3.784,0,0,1-1.569,1.217A5.3,5.3,0,0,1,47.4,19.176ZM47.065,11.6q-1.3,0-1.547,1.723h2.988v-.229a1.467,1.467,0,0,0-.36-1.1A1.434,1.434,0,0,0,47.065,11.6Zm11.285.571-.976-.07a1.752,1.752,0,0,0-1.793.879V19H52.62V9.49H55.4l.1,1.222a2.294,2.294,0,0,1,2.083-1.4,2.888,2.888,0,0,1,.826.105ZM59.643,13.8a13.431,13.431,0,0,1,.571-3.99,9.629,9.629,0,0,1,1.578-3.129,5.6,5.6,0,0,1,2.237-1.793l.563,1.459a5.73,5.73,0,0,0-1.9,2.826,13.782,13.782,0,0,0-.681,4.5v.387a14.051,14.051,0,0,0,.672,4.588A5.706,5.706,0,0,0,64.591,21.5l-.562,1.459a5.547,5.547,0,0,1-2.237-1.8,9.484,9.484,0,0,1-1.578-3.116,13.5,13.5,0,0,1-.571-3.85Zm15.284.246a12.532,12.532,0,0,1-.606,3.92,10.008,10.008,0,0,1-1.674,3.186,5.574,5.574,0,0,1-2.307,1.806L69.776,21.5a5.787,5.787,0,0,0,1.89-2.812,13.577,13.577,0,0,0,.694-4.368v-.536a14.051,14.051,0,0,0-.672-4.588,5.706,5.706,0,0,0-1.912-2.848l.563-1.459a5.676,5.676,0,0,1,2.29,1.789A9.885,9.885,0,0,1,74.3,9.811a12.426,12.426,0,0,1,.628,3.845Z" transform="translate(356 4280)" fill="#285894"/>
    <path id="Trazado_606434" data-name="Trazado 606434" d="M4.052,14.658V19H.967V6.2H6.073a5.948,5.948,0,0,1,2.6.541,4.074,4.074,0,0,1,1.749,1.538,4.2,4.2,0,0,1,.62,2.263A3.7,3.7,0,0,1,9.7,13.538a5.561,5.561,0,0,1-3.678,1.121Zm0-2.382H6.073a1.906,1.906,0,0,0,1.367-.448,1.665,1.665,0,0,0,.47-1.266A2.059,2.059,0,0,0,7.427,9.13a1.712,1.712,0,0,0-1.318-.545H4.052Zm13.1,6.9a4.889,4.889,0,0,1-3.542-1.305,4.507,4.507,0,0,1-1.354-3.4v-.246a5.84,5.84,0,0,1,.541-2.575A3.955,3.955,0,0,1,14.37,9.925a4.763,4.763,0,0,1,2.461-.611A4.117,4.117,0,0,1,20,10.558a4.887,4.887,0,0,1,1.16,3.467v1.151H15.267a2.135,2.135,0,0,0,.694,1.257,2.066,2.066,0,0,0,1.389.457,2.662,2.662,0,0,0,2.2-.984l1.354,1.6a3.784,3.784,0,0,1-1.569,1.217A5.3,5.3,0,0,1,17.147,19.176ZM16.813,11.6q-1.3,0-1.547,1.723h2.988v-.229a1.467,1.467,0,0,0-.36-1.1A1.434,1.434,0,0,0,16.813,11.6Zm10.512,4.729a.684.684,0,0,0-.4-.606,6.016,6.016,0,0,0-1.5-.475A6.853,6.853,0,0,1,23.6,14.6a3.062,3.062,0,0,1-1.1-.971,2.319,2.319,0,0,1-.378-1.31A2.628,2.628,0,0,1,23.2,10.163a4.453,4.453,0,0,1,2.83-.848,4.934,4.934,0,0,1,3.023.853A2.666,2.666,0,0,1,30.2,12.408H27.229q0-1.143-1.2-1.143a1.194,1.194,0,0,0-.782.259.8.8,0,0,0-.316.646.737.737,0,0,0,.387.642,3.654,3.654,0,0,0,1.235.4,10.671,10.671,0,0,1,1.49.378,2.706,2.706,0,0,1,2.145,2.646,2.491,2.491,0,0,1-1.156,2.118,5.068,5.068,0,0,1-2.993.817,5.172,5.172,0,0,1-2.18-.439,3.645,3.645,0,0,1-1.494-1.2,2.707,2.707,0,0,1-.536-1.591h2.769a1.145,1.145,0,0,0,.439.962,1.808,1.808,0,0,0,1.081.3,1.422,1.422,0,0,0,.91-.246A.787.787,0,0,0,27.325,16.328ZM36.923,19a3.344,3.344,0,0,1-.281-.853,2.754,2.754,0,0,1-2.285,1.028,3.374,3.374,0,0,1-2.285-.813,2.588,2.588,0,0,1-.94-2.043,2.66,2.66,0,0,1,1.143-2.338A5.821,5.821,0,0,1,35.6,13.19h.914v-.5q0-1.316-1.134-1.316a.927.927,0,0,0-1.055,1.042H31.359a2.655,2.655,0,0,1,1.173-2.239,4.931,4.931,0,0,1,2.993-.86A4.323,4.323,0,0,1,38.4,10.2a3.086,3.086,0,0,1,1.081,2.435v4.21a4.311,4.311,0,0,0,.4,2V19Zm-1.854-1.934a1.652,1.652,0,0,0,.918-.237,1.487,1.487,0,0,0,.523-.536V14.772h-.861q-1.547,0-1.547,1.389a.848.848,0,0,0,.272.655A.986.986,0,0,0,35.068,17.066Zm11.8-4.9L45.9,12.1a1.752,1.752,0,0,0-1.793.879V19H41.142V9.49h2.777l.1,1.222a2.294,2.294,0,0,1,2.083-1.4,2.888,2.888,0,0,1,.826.105ZM48.164,13.8a13.431,13.431,0,0,1,.571-3.99,9.629,9.629,0,0,1,1.578-3.129A5.6,5.6,0,0,1,52.55,4.885l.563,1.459a5.73,5.73,0,0,0-1.9,2.826,13.782,13.782,0,0,0-.681,4.5v.387a14.051,14.051,0,0,0,.672,4.588A5.706,5.706,0,0,0,53.112,21.5l-.562,1.459a5.547,5.547,0,0,1-2.237-1.8,9.484,9.484,0,0,1-1.578-3.116,13.5,13.5,0,0,1-.571-3.85Zm15.284.246a12.532,12.532,0,0,1-.606,3.92,10.008,10.008,0,0,1-1.674,3.186,5.574,5.574,0,0,1-2.307,1.806L58.3,21.5a5.787,5.787,0,0,0,1.89-2.812,13.577,13.577,0,0,0,.694-4.368v-.536a14.051,14.051,0,0,0-.672-4.588A5.706,5.706,0,0,0,58.3,6.344l.563-1.459a5.676,5.676,0,0,1,2.29,1.789,9.885,9.885,0,0,1,1.67,3.138,12.426,12.426,0,0,1,.628,3.845Z" transform="translate(356 4325)" fill="#285894"/>
    <path id="Trazado_606435" data-name="Trazado 606435" d="M5.019,6.2l2.856,8.9,2.848-8.9h4.061V19H11.689V16.012l.3-6.117L8.895,19H6.855l-3.1-9.114.3,6.126V19H.967V6.2Zm11.215,7.954a5.613,5.613,0,0,1,.554-2.536,3.96,3.96,0,0,1,1.591-1.709,4.791,4.791,0,0,1,2.435-.6,4.373,4.373,0,0,1,3.366,1.323,5.076,5.076,0,0,1,1.23,3.6v.105a4.925,4.925,0,0,1-1.235,3.529,4.384,4.384,0,0,1-3.344,1.305,4.434,4.434,0,0,1-3.261-1.217,4.761,4.761,0,0,1-1.327-3.3Zm2.962.185a3.538,3.538,0,0,0,.413,1.934,1.376,1.376,0,0,0,1.222.615q1.582,0,1.617-2.435v-.3q0-2.558-1.635-2.558-1.485,0-1.608,2.206Zm11.18,1.134,1.5-5.985H35L31.9,19H28.872l-3.1-9.51H28.9Zm10.107,3.7a4.889,4.889,0,0,1-3.542-1.305,4.507,4.507,0,0,1-1.354-3.4v-.246a5.84,5.84,0,0,1,.541-2.575,3.955,3.955,0,0,1,1.578-1.727,4.763,4.763,0,0,1,2.461-.611,4.117,4.117,0,0,1,3.164,1.244,4.887,4.887,0,0,1,1.16,3.467v1.151H38.6a2.135,2.135,0,0,0,.694,1.257,2.066,2.066,0,0,0,1.389.457,2.662,2.662,0,0,0,2.2-.984l1.354,1.6a3.784,3.784,0,0,1-1.569,1.217A5.3,5.3,0,0,1,40.482,19.176ZM40.148,11.6q-1.3,0-1.547,1.723H41.59v-.229a1.467,1.467,0,0,0-.36-1.1A1.434,1.434,0,0,0,40.148,11.6Zm11.285.571-.976-.07a1.752,1.752,0,0,0-1.793.879V19H45.7V9.49H48.48l.1,1.222a2.294,2.294,0,0,1,2.083-1.4,2.888,2.888,0,0,1,.826.105ZM52.726,13.8a13.431,13.431,0,0,1,.571-3.99,9.629,9.629,0,0,1,1.578-3.129,5.6,5.6,0,0,1,2.237-1.793l.563,1.459a5.73,5.73,0,0,0-1.9,2.826,13.782,13.782,0,0,0-.681,4.5v.387a14.051,14.051,0,0,0,.672,4.588A5.706,5.706,0,0,0,57.674,21.5l-.562,1.459a5.547,5.547,0,0,1-2.237-1.8A9.484,9.484,0,0,1,53.3,18.042a13.5,13.5,0,0,1-.571-3.85Zm15.284.246a12.532,12.532,0,0,1-.606,3.92,10.008,10.008,0,0,1-1.674,3.186,5.574,5.574,0,0,1-2.307,1.806L62.859,21.5a5.787,5.787,0,0,0,1.89-2.812,13.577,13.577,0,0,0,.694-4.368v-.536a14.051,14.051,0,0,0-.672-4.588,5.706,5.706,0,0,0-1.912-2.848l.563-1.459a5.676,5.676,0,0,1,2.29,1.789,9.885,9.885,0,0,1,1.67,3.138,12.426,12.426,0,0,1,.628,3.845Z" transform="translate(356 4368)" fill="#285894"/>
  </g>
</svg>
