<?xml version="1.0" encoding="UTF-8"?>
<svg id="Capa_2" data-name="Capa 2" xmlns="http://www.w3.org/2000/svg" viewBox="0 0 23.26 22.77">
  <defs>
    <style>
      .cls-1 {
        fill: #4f4c49;
      }
    </style>
  </defs>
  <g id="Capa_1-2" data-name="Capa 1">
    <path id="Trazado_151483" data-name="Trazado 151483" class="cls-1" d="M20.59,15.5c.4-.82,.66-1.68,.81-2.57l1.85-.54-.2-2.05-.2-2.05-1.92-.19c-.31-.84-.75-1.64-1.28-2.37l.93-1.66-1.61-1.32-1.61-1.32-1.5,1.19c-.84-.39-1.72-.65-2.62-.8l-.59-1.83-2.09,.19-2.09,.19-.2,1.88c-.86,.3-1.67,.73-2.42,1.25l-1.7-.91-1.34,1.6-1.34,1.57,1.21,1.47c-.4,.82-.66,1.68-.81,2.57l-1.87,.58,.2,2.05,.2,2.05,1.92,.19c.31,.84,.75,1.64,1.28,2.37l-.93,1.66,1.61,1.32,1.61,1.32,1.5-1.19c.84,.39,1.72,.65,2.62,.8l.55,1.81,2.09-.19,2.09-.19,.2-1.88c.86-.3,1.67-.73,2.42-1.25l1.7,.91,1.34-1.6,1.34-1.57-1.15-1.49Zm-12.25-.24c-2.2-1.79-2.49-4.96-.68-7.11,1.83-2.16,5.07-2.44,7.27-.67,2.2,1.79,2.49,4.96,.68,7.11-1.83,2.16-5.09,2.46-7.27,.67Z"/>
  </g>
</svg>