<svg xmlns="http://www.w3.org/2000/svg" xmlns:xlink="http://www.w3.org/1999/xlink" width="400" height="320" viewBox="0 0 400 320">
  <defs>
    <clipPath id="clip-path">
      <rect id="Rect치ngulo_296150" data-name="Rect치ngulo 296150" width="133.875" height="183.107" fill="#ef3c79"/>
    </clipPath>
  </defs>
  <g id="Grupo_882295" data-name="Grupo 882295" transform="translate(-1021 -5387)">
    <rect id="Rect치ngulo_297336" data-name="Rect치ngulo 297336" width="400" height="320" rx="10" transform="translate(1021 5387)" fill="#fff"/>
    <g id="Grupo_882287" data-name="Grupo 882287">
      <g id="Grupo_882195" data-name="Grupo 882195" transform="translate(1150.105 5418)">
        <g id="Grupo_879643" data-name="Grupo 879643" clip-path="url(#clip-path)">
          <path id="Trazado_603708" data-name="Trazado 603708" d="M34.914,112.078,12.638,172.389l19.549-8.583,9.276,19.229L63.94,122.181a55.1,55.1,0,0,1-29.026-10.1" transform="translate(0.008 0.072)" fill="#ef3c79"/>
          <path id="Trazado_603709" data-name="Trazado 603709" d="M69.882,122.181l22.476,60.854,9.277-19.229,19.548,8.583L98.908,112.078a55.1,55.1,0,0,1-29.026,10.1" transform="translate(0.045 0.072)" fill="#ef3c79"/>
          <path id="Trazado_603710" data-name="Trazado 603710" d="M66.926,116.942a50.011,50.011,0,1,1,50.011-50.01,50.068,50.068,0,0,1-50.011,50.01m0-98.669a48.659,48.659,0,1,0,48.658,48.659A48.714,48.714,0,0,0,66.926,18.273" transform="translate(0.011 0.011)" fill="#ef3c79"/>
          <path id="Trazado_603711" data-name="Trazado 603711" d="M133.707,78.787a14.181,14.181,0,0,0-1.808-5.069c-.349-.585-.735-1.118-1.109-1.632a9.732,9.732,0,0,1-1.728-3.125,7.643,7.643,0,0,1,.387-5.136,12.628,12.628,0,0,1,1.47-2.309,14.808,14.808,0,0,0,1.541-2.395,14.107,14.107,0,0,0,.494-11.143,15,15,0,0,0-8.1-8.442c-2.008-.865-5.376-2.964-5.365-7.315a18.673,18.673,0,0,1,.147-2,14.931,14.931,0,0,0,.12-2.981,14.338,14.338,0,0,0-11.428-12.85,17.924,17.924,0,0,0-4.432-.131c-2.12.115-4.125.223-6.008-.858s-2.8-2.878-3.755-4.775a17.524,17.524,0,0,0-2.383-3.837A14.371,14.371,0,0,0,71.665,3.492C70.275,4.58,66.5,6.7,61.487,2.9A14.365,14.365,0,0,0,40.993,6.273a14.422,14.422,0,0,0-1.33,2.565,18.145,18.145,0,0,1-.839,1.757,7.6,7.6,0,0,1-3.97,3.356,9.161,9.161,0,0,1-4.336.312,14.794,14.794,0,0,0-6.435.5,14.561,14.561,0,0,0-8.711,7.8A14.365,14.365,0,0,0,14.087,28.5a19.3,19.3,0,0,0,.155,2.058,10.041,10.041,0,0,1,.015,3.232,7.732,7.732,0,0,1-2.362,4.1A9.883,9.883,0,0,1,9.073,39.5c-.584.255-1.188.519-1.777.849A14.511,14.511,0,0,0,2.165,60.44c.313.5.643.954.964,1.395a9.613,9.613,0,0,1,1.711,3.1,7.7,7.7,0,0,1-.672,5.683,15.559,15.559,0,0,1-1.2,1.783,14.19,14.19,0,0,0-1.527,2.378A14.719,14.719,0,0,0,.006,80.668a14.547,14.547,0,0,0,3.94,10.268,14.925,14.925,0,0,0,4.477,2.971,12.311,12.311,0,0,1,4.248,2.9c1.723,2.087,1.62,4.18,1.5,6.6a22.344,22.344,0,0,0,.019,3.553A14.471,14.471,0,0,0,20.225,117.2c3.7,2.633,7.59,2.664,10.9,2.347a7.9,7.9,0,0,1,8.19,4.757c1.831,4.118,4.077,6.629,7.282,8.142a14.5,14.5,0,0,0,11.309.53,19.393,19.393,0,0,0,3.621-1.994c1.952-1.268,3.8-2.463,6.315-2.153a11.9,11.9,0,0,1,4.967,2.277,15.219,15.219,0,0,0,4.849,2.4,14.721,14.721,0,0,0,3.342.383,14.251,14.251,0,0,0,11.731-6.025,14.878,14.878,0,0,0,1.443-2.71,16.477,16.477,0,0,1,1.046-2.084c1.742-2.778,4.4-3.777,8.89-3.332a14.366,14.366,0,0,0,15.7-14.333,17.985,17.985,0,0,0-.162-2.037,10.123,10.123,0,0,1-.062-2.976,7.72,7.72,0,0,1,2.625-4.557,10.184,10.184,0,0,1,2.619-1.444,18.872,18.872,0,0,0,1.773-.839,14.362,14.362,0,0,0,4.529-4.057,14.512,14.512,0,0,0,2.572-10.7m-8.359.078a1.578,1.578,0,1,1-1.2-1.879,1.578,1.578,0,0,1,1.2,1.879m-4.888,13.418a1.578,1.578,0,1,1-1.2-1.879,1.578,1.578,0,0,1,1.2,1.879m-8.387,13.51a1.578,1.578,0,1,1-1.2-1.879,1.579,1.579,0,0,1,1.2,1.879m-12.034,9.974a1.578,1.578,0,1,1-1.2-1.879,1.577,1.577,0,0,1,1.2,1.879M85.5,122.623a1.578,1.578,0,1,1-1.2-1.878,1.578,1.578,0,0,1,1.2,1.878m-19.727,3.822a1.578,1.578,0,1,1,2.223-.193,1.578,1.578,0,0,1-2.223.193m-15.512-2.619a1.578,1.578,0,1,1,1.2-1.878,1.578,1.578,0,0,1-1.2,1.878M35.715,116.97a1.578,1.578,0,1,1,1.2-1.879,1.577,1.577,0,0,1-1.2,1.879M23.681,107a1.578,1.578,0,1,1,1.2-1.879,1.579,1.579,0,0,1-1.2,1.879m-8.387-13.51a1.578,1.578,0,1,1,1.2-1.879,1.578,1.578,0,0,1-1.2,1.879m-.708-49.028a1.578,1.578,0,1,1-.193-2.222,1.577,1.577,0,0,1,.193,2.222m3.342-12.217a1.578,1.578,0,1,1,.193,2.222,1.578,1.578,0,0,1-.193-2.222M24.9,23.946a1.578,1.578,0,1,1,.193,2.223,1.577,1.577,0,0,1-.193-2.223m9.273-7.7a1.578,1.578,0,1,1,.193,2.223,1.579,1.579,0,0,1-.193-2.223m10.259-4.883a1.578,1.578,0,1,1,.193,2.223,1.579,1.579,0,0,1-.193-2.223M55,8.543a1.578,1.578,0,1,1,.194,2.223A1.578,1.578,0,0,1,55,8.543M76.649,8.35a1.578,1.578,0,1,1-.193,2.223,1.578,1.578,0,0,1,.193-2.223m10.574,2.815a1.578,1.578,0,1,1-.193,2.223,1.579,1.579,0,0,1,.193-2.223m10.26,4.883a1.578,1.578,0,1,1-.194,2.223,1.578,1.578,0,0,1,.194-2.223m16.24,16a1.578,1.578,0,1,1-.193,2.222,1.578,1.578,0,0,1,.193-2.222m5.759,10.188a1.578,1.578,0,1,1-.193,2.222,1.577,1.577,0,0,1,.193-2.222M122.791,53.5a1.578,1.578,0,1,1-.193,2.222,1.577,1.577,0,0,1,.193-2.222m-1.137,13.439A54.716,54.716,0,1,1,66.938,12.225a54.778,54.778,0,0,1,54.716,54.716M108.785,26.17a1.578,1.578,0,1,1,.193-2.223,1.579,1.579,0,0,1-.193,2.223M67.993,9.663A1.578,1.578,0,1,1,67.8,7.44a1.577,1.577,0,0,1,.193,2.223M11.276,55.725a1.578,1.578,0,1,1-.193-2.222,1.577,1.577,0,0,1,.193,2.222M9.505,64.156a1.578,1.578,0,1,1-2.223.193,1.578,1.578,0,0,1,2.223-.193M8.526,78.865a1.578,1.578,0,1,1,1.879,1.2,1.579,1.579,0,0,1-1.879-1.2M124.176,66.38a1.578,1.578,0,1,1,2.223.193,1.578,1.578,0,0,1-2.223-.193" transform="translate(0 0)" fill="#ef3c79"/>
        </g>
      </g>
      <path id="Trazado_606407" data-name="Trazado 606407" d="M130.244,7.938l3.809,11.871,3.8-11.871h5.414V25h-4.125V21.016l.4-8.156L135.412,25h-2.719l-4.137-12.152.4,8.168V25h-4.113V7.938ZM152.838,25a4.459,4.459,0,0,1-.375-1.137,3.672,3.672,0,0,1-3.047,1.371,4.5,4.5,0,0,1-3.047-1.084,3.45,3.45,0,0,1-1.254-2.725,3.546,3.546,0,0,1,1.523-3.117,7.761,7.761,0,0,1,4.43-1.055h1.219v-.671q0-1.755-1.512-1.755a1.236,1.236,0,0,0-1.406,1.39H145.42a3.54,3.54,0,0,1,1.564-2.985,6.575,6.575,0,0,1,3.99-1.147,5.764,5.764,0,0,1,3.832,1.184,4.115,4.115,0,0,1,1.441,3.246v5.613a5.748,5.748,0,0,0,.539,2.672V25Zm-2.473-2.578a2.2,2.2,0,0,0,1.225-.316,1.983,1.983,0,0,0,.7-.715V19.363h-1.148q-2.062,0-2.062,1.852a1.131,1.131,0,0,0,.363.873A1.315,1.315,0,0,0,150.365,22.422ZM163.5,19.469l2.109-7.148h4.23l-5.168,14.8-.223.539a3.926,3.926,0,0,1-3.891,2.461,6.189,6.189,0,0,1-1.629-.233V27.074h.516a2.7,2.7,0,0,0,1.271-.24,1.459,1.459,0,0,0,.65-.862l.316-.844L157.279,12.32H161.5Zm6.867-.926a7.484,7.484,0,0,1,.738-3.381,5.28,5.28,0,0,1,2.121-2.279,6.388,6.388,0,0,1,3.246-.8,5.83,5.83,0,0,1,4.488,1.764,6.768,6.768,0,0,1,1.641,4.8v.141a6.566,6.566,0,0,1-1.646,4.705,5.846,5.846,0,0,1-4.459,1.74,5.912,5.912,0,0,1-4.348-1.623,6.348,6.348,0,0,1-1.77-4.4Zm3.949.246a4.718,4.718,0,0,0,.551,2.578,1.835,1.835,0,0,0,1.629.82q2.109,0,2.156-3.246v-.4q0-3.41-2.18-3.41-1.98,0-2.145,2.941Zm17.7-2.895-1.3-.094a2.336,2.336,0,0,0-2.391,1.172V25h-3.949V12.32h3.7l.129,1.629a3.058,3.058,0,0,1,2.777-1.863,3.851,3.851,0,0,1,1.1.141Zm12.762,6.293a1.756,1.756,0,0,0,1.289-.451,1.654,1.654,0,0,0,.445-1.26h3.7a4.384,4.384,0,0,1-1.494,3.422,5.558,5.558,0,0,1-3.85,1.336A5.627,5.627,0,0,1,200.51,23.5a6.834,6.834,0,0,1-1.594-4.8v-.164a7.723,7.723,0,0,1,.709-3.393,5.162,5.162,0,0,1,2.045-2.262,6.1,6.1,0,0,1,3.164-.791,5.488,5.488,0,0,1,3.926,1.371,4.863,4.863,0,0,1,1.453,3.715h-3.7a2.168,2.168,0,0,0-.48-1.512,1.658,1.658,0,0,0-1.289-.527q-1.535,0-1.793,1.957a13.809,13.809,0,0,0-.082,1.711,5.424,5.424,0,0,0,.457,2.648A1.582,1.582,0,0,0,204.775,22.188ZM219.025,25a4.459,4.459,0,0,1-.375-1.137,3.672,3.672,0,0,1-3.047,1.371,4.5,4.5,0,0,1-3.047-1.084,3.45,3.45,0,0,1-1.254-2.725,3.546,3.546,0,0,1,1.523-3.117,7.761,7.761,0,0,1,4.43-1.055h1.219v-.671q0-1.755-1.512-1.755a1.236,1.236,0,0,0-1.406,1.39h-3.949a3.54,3.54,0,0,1,1.564-2.985,6.575,6.575,0,0,1,3.99-1.147,5.764,5.764,0,0,1,3.832,1.184,4.115,4.115,0,0,1,1.441,3.246v5.613a5.748,5.748,0,0,0,.539,2.672V25Zm-2.473-2.578a2.2,2.2,0,0,0,1.225-.316,1.983,1.983,0,0,0,.7-.715V19.363h-1.148q-2.062,0-2.062,1.852a1.131,1.131,0,0,0,.363.873A1.315,1.315,0,0,0,216.553,22.422ZM228.787,25h-3.961V7h3.961Zm6.6,0h-3.961V12.32h3.961Zm-4.2-15.949a1.763,1.763,0,0,1,.609-1.383,2.591,2.591,0,0,1,3.164,0,1.763,1.763,0,0,1,.609,1.383,1.763,1.763,0,0,1-.609,1.383,2.591,2.591,0,0,1-3.164,0A1.763,1.763,0,0,1,231.189,9.051Zm6.129,9.516a7.746,7.746,0,0,1,1.3-4.746,4.282,4.282,0,0,1,3.633-1.734,3.641,3.641,0,0,1,2.859,1.336V7h3.961V25h-3.551l-.2-1.359a3.739,3.739,0,0,1-3.094,1.594,4.274,4.274,0,0,1-3.586-1.734A7.991,7.991,0,0,1,237.318,18.566Zm3.949.246q0,3.375,1.969,3.375a1.944,1.944,0,0,0,1.875-1.1V16.258a1.892,1.892,0,0,0-1.852-1.125q-1.828,0-1.98,2.953ZM258.459,25a4.459,4.459,0,0,1-.375-1.137,3.672,3.672,0,0,1-3.047,1.371,4.5,4.5,0,0,1-3.047-1.084,3.45,3.45,0,0,1-1.254-2.725,3.546,3.546,0,0,1,1.523-3.117,7.761,7.761,0,0,1,4.43-1.055h1.219v-.671q0-1.755-1.512-1.755a1.236,1.236,0,0,0-1.406,1.39h-3.949a3.54,3.54,0,0,1,1.564-2.985,6.575,6.575,0,0,1,3.99-1.147,5.764,5.764,0,0,1,3.832,1.184,4.115,4.115,0,0,1,1.441,3.246v5.613a5.748,5.748,0,0,0,.539,2.672V25Zm-2.473-2.578a2.2,2.2,0,0,0,1.225-.316,1.983,1.983,0,0,0,.7-.715V19.363H256.76q-2.062,0-2.062,1.852a1.131,1.131,0,0,0,.363.873A1.315,1.315,0,0,0,255.986,22.422Zm7.57-3.855a7.746,7.746,0,0,1,1.3-4.746,4.282,4.282,0,0,1,3.633-1.734,3.641,3.641,0,0,1,2.859,1.336V7h3.961V25H271.76l-.2-1.359a3.739,3.739,0,0,1-3.094,1.594,4.274,4.274,0,0,1-3.586-1.734A7.991,7.991,0,0,1,263.557,18.566Zm3.949.246q0,3.375,1.969,3.375a1.944,1.944,0,0,0,1.875-1.1V16.258a1.892,1.892,0,0,0-1.852-1.125q-1.828,0-1.98,2.953Z" transform="translate(1021 5616)"/>
    </g>
  </g>
</svg>
