<svg xmlns="http://www.w3.org/2000/svg" xmlns:xlink="http://www.w3.org/1999/xlink" width="400" height="320" viewBox="0 0 400 320">
  <defs>
    <clipPath id="clip-path">
      <rect id="Rect치ngulo_296152" data-name="Rect치ngulo 296152" width="188" height="165.523" fill="#ef3c79"/>
    </clipPath>
  </defs>
  <g id="Grupo_882289" data-name="Grupo 882289" transform="translate(-812 -5767)" style="isolation: isolate">
    <rect id="Rect치ngulo_297337" data-name="Rect치ngulo 297337" width="400" height="320" rx="10" transform="translate(812 5767)" fill="#fff"/>
    <g id="Grupo_882296" data-name="Grupo 882296">
      <g id="Grupo_882197" data-name="Grupo 882197" transform="translate(926 5815)">
        <g id="Grupo_879647" data-name="Grupo 879647" transform="translate(0 0)" clip-path="url(#clip-path)">
          <path id="Trazado_603716" data-name="Trazado 603716" d="M27,59.857A26.857,26.857,0,1,1,53.857,33,26.89,26.89,0,0,1,27,59.857m0-47.745A20.886,20.886,0,1,0,47.884,33,20.91,20.91,0,0,0,27,12.112" transform="translate(0.418 18.463)" fill="#ef3c79"/>
          <path id="Trazado_603717" data-name="Trazado 603717" d="M51.843,55.725H2.984A2.982,2.982,0,0,1,0,52.741V45.547a27.416,27.416,0,0,1,54.831,0v7.194a2.985,2.985,0,0,1-2.988,2.984M5.969,49.757h42.89v-4.21a21.445,21.445,0,0,0-42.89,0Z" transform="translate(0 54.496)" fill="#ef3c79"/>
          <path id="Trazado_603718" data-name="Trazado 603718" d="M47.063,68.463A34.232,34.232,0,1,1,81.292,34.23a34.274,34.274,0,0,1-34.23,34.234m0-62.494A28.261,28.261,0,1,0,75.323,34.23,28.294,28.294,0,0,0,47.063,5.969" transform="translate(38.561 -0.002)" fill="#ef3c79"/>
          <path id="Trazado_603719" data-name="Trazado 603719" d="M79.585,63.054H15.632a2.982,2.982,0,0,1-2.984-2.984V50.652a34.961,34.961,0,0,1,69.921,0v9.418a2.982,2.982,0,0,1-2.984,2.984M18.617,57.085H76.6V50.652a28.992,28.992,0,0,0-57.984,0Z" transform="translate(38.017 47.168)" fill="#ef3c79"/>
          <path id="Trazado_603720" data-name="Trazado 603720" d="M29,28.55A31.537,31.537,0,1,0,73.5,25.406,31.539,31.539,0,0,0,29,28.55m39.97,34.686a21.382,21.382,0,1,1-2.135-30.164,21.381,21.381,0,0,1,2.135,30.164" transform="translate(63.991 53.155)" fill="#ef3c79"/>
          <path id="Trazado_603721" data-name="Trazado 603721" d="M54.738,85.372a34.267,34.267,0,1,1,2.46-.088c-.821.056-1.642.088-2.46.088m.1-63.075c-.693,0-1.386.024-2.083.072A28.9,28.9,0,0,0,54.746,80.1c.693,0,1.386-.028,2.083-.076A28.9,28.9,0,0,0,54.834,22.3m-.08,52.921a24.023,24.023,0,1,1,1.731-.06q-.871.06-1.731.06M54.8,32.46A18.736,18.736,0,1,0,67.08,37.042,18.7,18.7,0,0,0,54.8,32.46" transform="translate(62.023 51.176)" fill="#ef3c79"/>
          <path id="Trazado_603722" data-name="Trazado 603722" d="M35.5,31.055,53.839,46.974Z" transform="translate(106.694 93.343)" fill="#ef3c79"/>
          <path id="Trazado_603723" data-name="Trazado 603723" d="M55.813,51.588a2.622,2.622,0,0,1-1.726-.645L35.744,35.024A2.637,2.637,0,0,1,39.2,31.042L57.543,46.961a2.638,2.638,0,0,1-1.731,4.627" transform="translate(104.716 91.366)" fill="#ef3c79"/>
          <path id="Trazado_603724" data-name="Trazado 603724" d="M69.05,60.808h0a5.676,5.676,0,0,1-8.008.565l-20.85-18.1A5.676,5.676,0,1,1,47.635,34.7l20.85,18.1a5.676,5.676,0,0,1,.565,8.008" transform="translate(114.928 100.127)" fill="#ef3c79"/>
          <path id="Trazado_603725" data-name="Trazado 603725" d="M66.732,67.37a8.269,8.269,0,0,1-5.44-2.031l-20.854-18.1a8.313,8.313,0,1,1,10.9-12.554l20.85,18.1A8.308,8.308,0,0,1,66.732,67.37M45.89,37.924A3.039,3.039,0,0,0,43.9,43.259l20.85,18.1a3.041,3.041,0,0,0,3.986-4.595L47.881,38.669a3.019,3.019,0,0,0-1.991-.745" transform="translate(112.952 98.152)" fill="#ef3c79"/>
          <path id="Trazado_603726" data-name="Trazado 603726" d="M40.057,6.887v0Z" transform="translate(120.403 20.699)" fill="#ef3c79"/>
          <path id="Trazado_603727" data-name="Trazado 603727" d="M42.3,47.891a2.987,2.987,0,0,1-2.984-2.984V9.127a2.984,2.984,0,1,1,5.969,0v35.78A2.984,2.984,0,0,1,42.3,47.891" transform="translate(118.164 18.463)" fill="#ef3c79"/>
          <path id="Trazado_603728" data-name="Trazado 603728" d="M71.371,11.354h0Z" transform="translate(106.979 34.126)" fill="#ef3c79"/>
          <path id="Trazado_603729" data-name="Trazado 603729" d="M73.61,16.578H37.83a2.984,2.984,0,0,1,0-5.969H73.61a2.984,2.984,0,1,1,0,5.969" transform="translate(104.74 31.887)" fill="#ef3c79"/>
          <path id="Trazado_603730" data-name="Trazado 603730" d="M12.086,32.3v0Z" transform="translate(36.328 97.086)" fill="#ef3c79"/>
          <path id="Trazado_603731" data-name="Trazado 603731" d="M14.325,63.978a2.987,2.987,0,0,1-2.984-2.984V34.539a2.984,2.984,0,0,1,5.969,0V60.994a2.984,2.984,0,0,1-2.984,2.984" transform="translate(34.089 94.846)" fill="#ef3c79"/>
          <path id="Trazado_603732" data-name="Trazado 603732" d="M35.238,35.6h0Z" transform="translate(26.403 107.011)" fill="#ef3c79"/>
          <path id="Trazado_603733" data-name="Trazado 603733" d="M37.478,40.826H11.023a2.984,2.984,0,0,1,0-5.969H37.478a2.984,2.984,0,0,1,0,5.969" transform="translate(24.164 104.771)" fill="#ef3c79"/>
        </g>
      </g>
      <path id="Trazado_606408" data-name="Trazado 606408" d="M55.258,7.938l3.809,11.871,3.8-11.871h5.414V25H64.152V21.016l.4-8.156L60.426,25H57.707L53.57,12.848l.4,8.168V25H49.855V7.938ZM77.852,25a4.459,4.459,0,0,1-.375-1.137,3.672,3.672,0,0,1-3.047,1.371,4.5,4.5,0,0,1-3.047-1.084,3.45,3.45,0,0,1-1.254-2.725,3.546,3.546,0,0,1,1.523-3.117,7.761,7.761,0,0,1,4.43-1.055H77.3v-.671q0-1.755-1.512-1.755a1.236,1.236,0,0,0-1.406,1.39H70.434A3.54,3.54,0,0,1,72,13.233a6.575,6.575,0,0,1,3.99-1.147A5.764,5.764,0,0,1,79.82,13.27a4.115,4.115,0,0,1,1.441,3.246v5.613A5.748,5.748,0,0,0,81.8,24.8V25Zm-2.473-2.578a2.2,2.2,0,0,0,1.225-.316,1.983,1.983,0,0,0,.7-.715V19.363H76.152q-2.062,0-2.062,1.852a1.131,1.131,0,0,0,.363.873A1.315,1.315,0,0,0,75.379,22.422Zm13.137-2.953,2.109-7.148h4.23l-5.168,14.8-.223.539a3.926,3.926,0,0,1-3.891,2.461,6.189,6.189,0,0,1-1.629-.233V27.074h.516a2.7,2.7,0,0,0,1.271-.24,1.459,1.459,0,0,0,.65-.862l.316-.844L82.293,12.32h4.219Zm6.867-.926a7.484,7.484,0,0,1,.738-3.381,5.28,5.28,0,0,1,2.121-2.279,6.388,6.388,0,0,1,3.246-.8,5.83,5.83,0,0,1,4.488,1.764,6.768,6.768,0,0,1,1.641,4.8v.141a6.566,6.566,0,0,1-1.646,4.705,5.846,5.846,0,0,1-4.459,1.74,5.912,5.912,0,0,1-4.348-1.623,6.348,6.348,0,0,1-1.77-4.4Zm3.949.246a4.718,4.718,0,0,0,.551,2.578,1.835,1.835,0,0,0,1.629.82q2.109,0,2.156-3.246v-.4q0-3.41-2.18-3.41-1.98,0-2.145,2.941Zm17.7-2.895-1.3-.094a2.336,2.336,0,0,0-2.391,1.172V25h-3.949V12.32h3.7l.129,1.629A3.058,3.058,0,0,1,116,12.086a3.851,3.851,0,0,1,1.1.141ZM128.16,12.32l.129,1.488a4.36,4.36,0,0,1,3.621-1.723A3.21,3.21,0,0,1,135.156,14a4.22,4.22,0,0,1,3.727-1.91q3.855,0,3.961,4.664V25h-3.961V17a2.417,2.417,0,0,0-.328-1.418,1.4,1.4,0,0,0-1.2-.445,1.871,1.871,0,0,0-1.746,1.043l.012.164V25h-3.961V17.02a2.541,2.541,0,0,0-.316-1.441,1.393,1.393,0,0,0-1.207-.445,1.894,1.894,0,0,0-1.734,1.043V25h-3.949V12.32ZM144.6,18.543a7.484,7.484,0,0,1,.738-3.381,5.28,5.28,0,0,1,2.121-2.279,6.388,6.388,0,0,1,3.246-.8A5.83,5.83,0,0,1,155.2,13.85a6.768,6.768,0,0,1,1.641,4.8v.141a6.566,6.566,0,0,1-1.646,4.705,5.846,5.846,0,0,1-4.459,1.74,5.912,5.912,0,0,1-4.348-1.623,6.348,6.348,0,0,1-1.77-4.4Zm3.949.246a4.718,4.718,0,0,0,.551,2.578,1.835,1.835,0,0,0,1.629.82q2.109,0,2.156-3.246v-.4q0-3.41-2.18-3.41-1.98,0-2.145,2.941Zm17.7-2.895-1.3-.094a2.336,2.336,0,0,0-2.391,1.172V25h-3.949V12.32h3.7l.129,1.629a3.058,3.058,0,0,1,2.777-1.863,3.851,3.851,0,0,1,1.1.141ZM174.461,25a4.459,4.459,0,0,1-.375-1.137,3.672,3.672,0,0,1-3.047,1.371,4.5,4.5,0,0,1-3.047-1.084,3.45,3.45,0,0,1-1.254-2.725,3.546,3.546,0,0,1,1.523-3.117,7.761,7.761,0,0,1,4.43-1.055h1.219v-.671q0-1.755-1.512-1.755a1.236,1.236,0,0,0-1.406,1.39h-3.949a3.54,3.54,0,0,1,1.564-2.985,6.575,6.575,0,0,1,3.99-1.147,5.764,5.764,0,0,1,3.832,1.184,4.115,4.115,0,0,1,1.441,3.246v5.613a5.748,5.748,0,0,0,.539,2.672V25Zm-2.473-2.578a2.2,2.2,0,0,0,1.225-.316,1.983,1.983,0,0,0,.7-.715V19.363h-1.148q-2.062,0-2.062,1.852a1.131,1.131,0,0,0,.363.873A1.315,1.315,0,0,0,171.988,22.422ZM184.223,25h-3.961V7h3.961Zm7.91-6.434a7.746,7.746,0,0,1,1.3-4.746,4.282,4.282,0,0,1,3.633-1.734,3.641,3.641,0,0,1,2.859,1.336V7h3.961V25h-3.551l-.2-1.359a3.739,3.739,0,0,1-3.094,1.594,4.274,4.274,0,0,1-3.586-1.734A7.991,7.991,0,0,1,192.133,18.566Zm3.949.246q0,3.375,1.969,3.375a1.944,1.944,0,0,0,1.875-1.1V16.258a1.892,1.892,0,0,0-1.852-1.125q-1.828,0-1.98,2.953Zm16.184,6.422a6.518,6.518,0,0,1-4.723-1.74,6.009,6.009,0,0,1-1.8-4.529v-.328a7.787,7.787,0,0,1,.721-3.434,5.274,5.274,0,0,1,2.1-2.3,6.35,6.35,0,0,1,3.281-.814,5.489,5.489,0,0,1,4.219,1.658,6.516,6.516,0,0,1,1.547,4.623V19.9h-7.852a2.846,2.846,0,0,0,.926,1.676,2.755,2.755,0,0,0,1.852.609,3.549,3.549,0,0,0,2.93-1.312l1.8,2.133a5.045,5.045,0,0,1-2.092,1.623A7.069,7.069,0,0,1,212.266,25.234Zm-.445-10.1q-1.734,0-2.062,2.3h3.984v-.3a1.956,1.956,0,0,0-.48-1.471A1.912,1.912,0,0,0,211.82,15.133ZM229.34,25h-3.961V7h3.961Zm1.934-6.457a7.484,7.484,0,0,1,.738-3.381,5.28,5.28,0,0,1,2.121-2.279,6.388,6.388,0,0,1,3.246-.8,5.83,5.83,0,0,1,4.488,1.764,6.768,6.768,0,0,1,1.641,4.8v.141a6.566,6.566,0,0,1-1.646,4.705,5.846,5.846,0,0,1-4.459,1.74,5.912,5.912,0,0,1-4.348-1.623,6.348,6.348,0,0,1-1.77-4.4Zm3.949.246a4.718,4.718,0,0,0,.551,2.578,1.835,1.835,0,0,0,1.629.82q2.109,0,2.156-3.246v-.4q0-3.41-2.18-3.41-1.98,0-2.145,2.941Zm16.664,2.648a.912.912,0,0,0-.527-.809,8.021,8.021,0,0,0-2-.633,9.138,9.138,0,0,1-2.437-.861,4.083,4.083,0,0,1-1.465-1.295,3.092,3.092,0,0,1-.5-1.746,3.5,3.5,0,0,1,1.441-2.877,5.938,5.938,0,0,1,3.773-1.131,6.579,6.579,0,0,1,4.031,1.137,3.555,3.555,0,0,1,1.523,2.988h-3.961q0-1.523-1.605-1.523a1.591,1.591,0,0,0-1.043.346,1.07,1.07,0,0,0-.422.861.982.982,0,0,0,.516.855,4.872,4.872,0,0,0,1.646.539,14.228,14.228,0,0,1,1.986.5q2.859.984,2.859,3.527a3.321,3.321,0,0,1-1.541,2.824,6.758,6.758,0,0,1-3.99,1.09,6.9,6.9,0,0,1-2.906-.586,4.86,4.86,0,0,1-1.992-1.594,3.609,3.609,0,0,1-.715-2.121h3.691a1.526,1.526,0,0,0,.586,1.283,2.41,2.41,0,0,0,1.441.4,1.9,1.9,0,0,0,1.213-.328A1.05,1.05,0,0,0,251.887,21.438Zm-151.605,33.8a6.518,6.518,0,0,1-4.723-1.74,6.009,6.009,0,0,1-1.8-4.529v-.328a7.787,7.787,0,0,1,.721-3.434,5.274,5.274,0,0,1,2.1-2.3,6.35,6.35,0,0,1,3.281-.814,5.489,5.489,0,0,1,4.219,1.658,6.516,6.516,0,0,1,1.547,4.623V49.9H97.773a2.846,2.846,0,0,0,.926,1.676,2.755,2.755,0,0,0,1.852.609,3.549,3.549,0,0,0,2.93-1.312l1.8,2.133a5.045,5.045,0,0,1-2.092,1.623A7.069,7.069,0,0,1,100.281,55.234Zm-.445-10.1q-1.734,0-2.062,2.3h3.984v-.3a1.956,1.956,0,0,0-.48-1.471A1.912,1.912,0,0,0,99.836,45.133Zm11.109-2.812.129,1.488a4.36,4.36,0,0,1,3.621-1.723A3.21,3.21,0,0,1,117.941,44a4.22,4.22,0,0,1,3.727-1.91q3.855,0,3.961,4.664V55h-3.961V47a2.417,2.417,0,0,0-.328-1.418,1.4,1.4,0,0,0-1.2-.445,1.871,1.871,0,0,0-1.746,1.043l.012.164V55h-3.961V47.02a2.541,2.541,0,0,0-.316-1.441,1.393,1.393,0,0,0-1.207-.445,1.894,1.894,0,0,0-1.734,1.043V55h-3.949V42.32Zm28.711,6.434a7.646,7.646,0,0,1-1.33,4.717,4.264,4.264,0,0,1-3.592,1.764,3.655,3.655,0,0,1-2.871-1.277v5.918h-3.949V42.32h3.691l.117,1.172a3.656,3.656,0,0,1,2.988-1.406,4.3,4.3,0,0,1,3.645,1.729,7.741,7.741,0,0,1,1.3,4.752Zm-3.949-.246q0-3.375-1.969-3.375a1.859,1.859,0,0,0-1.875,1.008v4.992a1.919,1.919,0,0,0,1.9,1.055q1.887,0,1.945-3.258ZM145.563,55H141.6V37h3.961Zm8.566.234a6.518,6.518,0,0,1-4.723-1.74,6.009,6.009,0,0,1-1.8-4.529v-.328a7.787,7.787,0,0,1,.721-3.434,5.274,5.274,0,0,1,2.1-2.3,6.35,6.35,0,0,1,3.281-.814,5.489,5.489,0,0,1,4.219,1.658,6.516,6.516,0,0,1,1.547,4.623V49.9h-7.852a2.846,2.846,0,0,0,.926,1.676,2.755,2.755,0,0,0,1.852.609,3.549,3.549,0,0,0,2.93-1.312l1.8,2.133a5.045,5.045,0,0,1-2.092,1.623A7.069,7.069,0,0,1,154.129,55.234Zm-.445-10.1q-1.734,0-2.062,2.3h3.984v-.3a1.956,1.956,0,0,0-.48-1.471A1.912,1.912,0,0,0,153.684,45.133ZM168.2,55a4.459,4.459,0,0,1-.375-1.137,3.672,3.672,0,0,1-3.047,1.371,4.5,4.5,0,0,1-3.047-1.084,3.45,3.45,0,0,1-1.254-2.725A3.546,3.546,0,0,1,162,48.309a7.761,7.761,0,0,1,4.43-1.055h1.219v-.671q0-1.755-1.512-1.755a1.236,1.236,0,0,0-1.406,1.39h-3.949a3.54,3.54,0,0,1,1.564-2.985,6.575,6.575,0,0,1,3.99-1.147,5.764,5.764,0,0,1,3.832,1.184,4.115,4.115,0,0,1,1.441,3.246v5.613a5.748,5.748,0,0,0,.539,2.672V55Zm-2.473-2.578a2.2,2.2,0,0,0,1.225-.316,1.983,1.983,0,0,0,.7-.715V49.363H166.5q-2.062,0-2.062,1.852a1.131,1.131,0,0,0,.363.873A1.315,1.315,0,0,0,165.73,52.422Zm7.57-3.855a7.746,7.746,0,0,1,1.3-4.746,4.282,4.282,0,0,1,3.633-1.734,3.641,3.641,0,0,1,2.859,1.336V37h3.961V55H181.5l-.2-1.359a3.739,3.739,0,0,1-3.094,1.594,4.274,4.274,0,0,1-3.586-1.734A7.991,7.991,0,0,1,173.3,48.566Zm3.949.246q0,3.375,1.969,3.375a1.944,1.944,0,0,0,1.875-1.1V46.258a1.892,1.892,0,0,0-1.852-1.125q-1.828,0-1.98,2.953Zm9.551-.27a7.484,7.484,0,0,1,.738-3.381,5.28,5.28,0,0,1,2.121-2.279,6.388,6.388,0,0,1,3.246-.8,5.83,5.83,0,0,1,4.488,1.764,6.768,6.768,0,0,1,1.641,4.8v.141a6.566,6.566,0,0,1-1.646,4.705,5.846,5.846,0,0,1-4.459,1.74,5.912,5.912,0,0,1-4.348-1.623,6.348,6.348,0,0,1-1.77-4.4Zm3.949.246a4.718,4.718,0,0,0,.551,2.578,1.835,1.835,0,0,0,1.629.82q2.109,0,2.156-3.246v-.4q0-3.41-2.18-3.41-1.98,0-2.145,2.941Zm16.664,2.648a.912.912,0,0,0-.527-.809,8.021,8.021,0,0,0-2-.633,9.138,9.138,0,0,1-2.437-.861,4.083,4.083,0,0,1-1.465-1.295,3.092,3.092,0,0,1-.5-1.746,3.5,3.5,0,0,1,1.441-2.877,5.938,5.938,0,0,1,3.773-1.131,6.579,6.579,0,0,1,4.031,1.137,3.555,3.555,0,0,1,1.523,2.988h-3.961q0-1.523-1.605-1.523a1.591,1.591,0,0,0-1.043.346,1.07,1.07,0,0,0-.422.861.982.982,0,0,0,.516.855,4.872,4.872,0,0,0,1.646.539,14.228,14.228,0,0,1,1.986.5q2.859.984,2.859,3.527a3.321,3.321,0,0,1-1.541,2.824,6.758,6.758,0,0,1-3.99,1.09,6.9,6.9,0,0,1-2.906-.586,4.86,4.86,0,0,1-1.992-1.594,3.609,3.609,0,0,1-.715-2.121h3.691a1.526,1.526,0,0,0,.586,1.283,2.41,2.41,0,0,0,1.441.4,1.9,1.9,0,0,0,1.213-.328A1.05,1.05,0,0,0,207.414,51.438Z" transform="translate(858 5996)"/>
    </g>
  </g>
</svg>
